<?xml version="1.0" encoding="utf-8"?>
<!-- Generator: Adobe Illustrator 19.2.0, SVG Export Plug-In . SVG Version: 6.00 Build 0)  -->
<svg version="1.1" id="Layer_1" xmlns="http://www.w3.org/2000/svg" xmlns:xlink="http://www.w3.org/1999/xlink" x="0px" y="0px"
	 viewBox="0 0 41 41" style="enable-background:new 0 0 41 41;" xml:space="preserve">
<style type="text/css">
	.st0{fill:#C41230;}
	.st1{fill:#FFFFFF;}
</style>
<g>
	<circle class="st0" cx="20.5" cy="20.5" r="20.3"/>
	<path class="st1" d="M30.9,13.4l1.2-1.2L30,11.9l0.4-0.4l2.2,0.1l1.1-1.1l-2-0.4l1.4-1.4c0.2-0.2,0.2-0.4,0-0.6
		c-0.2-0.2-0.4-0.2-0.6,0l-1.4,1.4l-0.4-2l-1.1,1.1l0.1,2.2l-0.4,0.4l-0.3-2.1l-1.2,1.2l0,0.8c-2.1-1.7-4.8-2.7-7.8-2.7
		c-7,0-12.7,5.7-12.7,12.7c0,7,5.7,12.7,12.7,12.7s12.7-5.7,12.7-12.7c0-2.9-1-5.7-2.7-7.8L30.9,13.4z M27.1,21.1
		c0,3.8-3.1,6.9-6.9,6.9s-6.9-3.1-6.9-6.9s3.1-6.9,6.9-6.9c1.8,0,3.4,0.7,4.6,1.7l-1.6,1.6c-0.8-0.6-1.8-1-2.9-1
		c-2.6,0-4.7,2.1-4.7,4.7c0,2.6,2.1,4.7,4.7,4.7c2.6,0,4.7-2.1,4.7-4.7c0-1.2-0.4-2.2-1.1-3.1l1.6-1.6
		C26.5,17.7,27.1,19.4,27.1,21.1z M22.5,21.1c0,1.3-1,2.3-2.3,2.3c-1.3,0-2.3-1-2.3-2.3c0-1.3,1-2.3,2.3-2.3c0.4,0,0.9,0.1,1.2,0.4
		l-1.6,1.6c-0.2,0.2-0.2,0.4,0,0.6c0.1,0.1,0.2,0.1,0.3,0.1c0.1,0,0.2,0,0.3-0.1l1.6-1.6C22.4,20.2,22.5,20.6,22.5,21.1z M32.1,21.2
		c0,6.6-5.4,11.9-11.9,11.9S8.2,27.8,8.2,21.2c0-6.6,5.4-11.9,11.9-11.9c3,0,5.7,1.1,7.8,2.9l0,0.7l-1.4,1.4
		c-1.7-1.5-3.9-2.5-6.4-2.5c-5.2,0-9.5,4.3-9.5,9.5c0,5.2,4.3,9.5,9.5,9.5s9.5-4.3,9.5-9.5c0-2.5-1-4.7-2.5-6.4l1.4-1.4l0.7,0
		C31,15.4,32.1,18.2,32.1,21.2z"/>
</g>
</svg>
