<?xml version="1.0" encoding="UTF-8"?><svg id="Layer_2" xmlns="http://www.w3.org/2000/svg" viewBox="0 0 35.96415 35.96415"><defs><style>.cls-1{fill:#fff;}.cls-2{fill:#c41230;}</style></defs><g id="Icons"><path class="cls-1" d="m14.73044,10.41106l.16305,1.01238c.0728.2029.16501.36111.27858.47463.6018.60087,1.59668,1.25992,2.42562,1.14151.94442-.1369,1.31326-.12521,1.31717-.1301l.01745.00294c.00489.00196.45038.14364.90175-.13201.45718-.27956.76289-.8726.91044-1.76266.00391-.02039.30185-1.92968-.93763-2.93619-1.20941-.98232-1.59184-.66878-1.59575-.66492l-.06209.05535-.03202-.07764c-.00294-.00875-.3504-.87652-1.34729-1.3424l-.01549-.01169c-.02718-.02713-.0971-.05241-.15239-.0728-.033-.01163-.06312-.02327-.08835-.0349l-.25238-.11651c-.16017-.0728-.35138-.15625-.55325-.22905-.32615-.11646-.75033-.23781-1.13857-.13684-.20089.05241-.37563.16887-.50475.33681-.21834.28342-.31153.65519-.39308.98324-.04464.17958-.09319.38824-.10874.59794-.00386.05241-.00386.10482-.00386.15821,0,.13587,0,.27565-.05921.40863-.03784.08541-.066.17278-.08835.24748-.1077.34948-.13684.64741-.08737.9105.03594.19409.12135.36301.24558.48724.30288.30185.5931.49796.80274.61637.40477-2.10241,2.30427-2.47803,2.32368-2.48195l.37568-.06986-.33779.1805c-1.83742.97748-2.00242,2.5703-2.0034,2.58579Z"/><path class="cls-1" d="m5.87723,15.95729c-.22323.44554-.45424.90658-.40863,1.37252.03398.33779.24167.62219.463.88038.24069.28048.52606.5552.89587.86287l.07378.06116c.40085.33485.85608.71439,1.34142.85901.59114.17664,1.11139-.17082,1.11623-.17474l.02137-.01452c.16501-.19317,1.06768-1.36958.45522-3.27202l-.28538-.88913.39411.84542c.00968.02137.23971.51932.33485,1.20262.12135.87358-.0398,1.6443-.46588,2.23637.55613.12423,1.52002.20774,2.31107-.40085l.00582-.0068c.00386-.00294.30185-.26983.51057-.85031.19219-.53677.34458-1.45885-.02425-2.80321l-.19806-.72119.30772.68139c.00968.02137.97454,2.20532-.1388,3.86121.29995.07573.73766.06116,1.24339-.34649.97063-.78333.74158-2.39556.26885-3.29143-.01261-.0311-.97063-2.46156-2.60422-1.93452l-.02327.00777-.02235-.01163c-.0068-.00391-.76197-.39895-1.43944-.17572-.34072.11162-.60762.36301-.79301.74451v.00098l-.05241-.02528-.04953.02621c-.03784-.04464-.39895-.2514-.47561-.29022-.19703-.10091-.38047-.16011-.562-.1805-.03784-.00391-.07764-.0068-.11743-.00777-.10776-.00196-.22035.00968-.33583.03398-.70178.15141-1.26476.6018-1.50648,1.2055-.06693.16892-.15141.33681-.24069.51443Z"/><path class="cls-1" d="m30.58194,18.68678c-2.49549-.78138-4.78524-1.24149-6.99247-1.55014-1.08616-1.66175-2.15775-3.19145-3.14975-4.5358-.12037.16794-.25819.30381-.41445.39895-.02914.01745-.05725.02909-.08639.04366,2.72747,3.99033,4.87457,7.89519,6.56443,11.58362l.61245-1.61516c-.93181-1.71123-1.90244-3.31666-2.86921-4.83961,3.2381.61833,5.72581,1.3424,7.30797,1.88113-.26787-.52416-.60278-.97645-.97259-1.36665Z"/><path class="cls-1" d="m21.38322,28.3922c2.42464-3.18661-.76974-4.59697-3.42637-8.70082-.4543,1.65104-2.55377,2.40621-1.12884,4.34943.54743.74837.35812,2.06359-.59794,2.75178-.89104-.51834.55134-1.4482-1.20555-2.63434-.04268.44457-2.18684,2.62173-.8862,4.46784,1.30162,1.84715,5.50062,2.05875,7.2449-.23389Zm-2.1422.82601c-1.31429.62023-4.29316.13103-3.61177-1.72678.099.31354.60082.64546.92018.73864.99972-.25428,1.46761-1.4016,1.70052-2.29362.61251,1.65202,2.45281.73864,2.15096-1.22687,1.05702,1.41906.67074,3.64379-1.15988,4.50862Z"/><path class="cls-1" d="m22.03449,16.93668c-2.51201-.28048-4.94057-.39792-7.45742-.59109.08835.20769.16207.43967.21546.68427,2.90515.15821,5.51328.46593,7.79913.84156-.18251-.3106-.36791-.62219-.55716-.93475Z"/><path class="cls-2" d="m15.62924,27.49143c-.68139,1.85781,2.29751,2.34701,3.61175,1.72677,1.83063-.86484,2.21694-3.08955,1.15991-4.50862.30187,1.96555-1.53846,2.87892-2.15094,1.22689-.23295.89202-.7008,2.03931-1.70056,2.29362-.31934-.09318-.82116-.42514-.92017-.73866m15.92529-7.43801c-1.58214-.53871-4.06989-1.2628-7.30795-1.8811.96676,1.52293,1.9374,3.12837,2.86921,4.83961l-.61247,1.61515c-1.68989-3.68843-3.83694-7.59332-6.56444-11.58362.02912-.01456.05727-.02621.08639-.04368.15627-.09512.2941-.23101.41446-.39893.992,1.34434,2.06358,2.87407,3.14973,4.5358,2.20724.30866,4.49697.76875,6.99249,1.55011.36981.3902.70468.84252.97258,1.36666m-10.81002-9.03569c-.14754.89008-.45329,1.48314-.91046,1.76268-.45135.27566-.89687.13395-.90173.13201l-.01747-.00291c-.00388.00485-.37272-.00679-1.31716.13007-.82892.11842-1.82383-.54065-2.42563-1.14147-.11357-.11357-.20578-.27178-.27857-.47464l-.16307-1.01238c.00097-.01553.16598-1.60835,2.0034-2.58578l.33778-.18054-.37564.06989c-.01941.00388-1.91895.37952-2.32371,2.48193-.20966-.11842-.49988-.31449-.80272-.61636-.12424-.12424-.20966-.29313-.24557-.48726-.0495-.26304-.02038-.56103.08736-.91046.02233-.07474.05047-.1621.08833-.24751.05921-.13298.05921-.27275.05921-.40864,0-.05339,0-.1058.00388-.15821.01553-.20966.06406-.41835.10871-.59791.08153-.32808.17471-.69983.39311-.98326.12909-.16792.30381-.2844.50473-.33681.38826-.10095.81243.02038,1.13856.13686.20189.0728.39311.15627.55326.22907l.25237.11648c.02524.01165.05533.0233.08833.03494.05533.02038.12521.04562.15239.0728l.01553.01165c.99685.46591,1.34434,1.33366,1.34725,1.3424l.03203.07765.06212-.05533c.00388-.00388.38632-.3174,1.59573.66489,1.23951,1.00655.94152,2.9158.93764,2.93619m-6.645,5.0318c.4727.8959.70177,2.50813-.26887,3.29144-.5057.40767-.94346.42223-1.24339.34652,1.11332-1.65591.14851-3.83985.1388-3.8612l-.30769-.68139.19801.72119c.36884,1.34434.21645,2.26644.02427,2.80321-.20869.58044-.50668.84737-.51056.85028l-.00582.00679c-.79107.60859-1.75492.52511-2.31109.40087.42611-.59209.58724-1.36278.46591-2.23636-.09512-.68333-.32517-1.18127-.33487-1.20262l-.39408-.84543.28537.88911c.61247,1.90246-.29022,3.07887-.45523,3.27203l-.02135.01456c-.00485.00388-.52512.35137-1.11624.17472-.48532-.14463-.94055-.52414-1.34142-.85902l-.07377-.06115c-.36981-.30769-.65518-.58238-.8959-.8629-.22131-.25819-.42902-.54259-.46299-.88037-.04562-.46591.18539-.92696.40864-1.37248.0893-.17763.17374-.34555.24072-.51444.24169-.60374.80466-1.05412,1.50643-1.20554.11551-.02427.2281-.03591.33584-.03397.0398.00097.07959.00388.11745.00777.18151.02038.36496.07959.562.18054.07668.03883.43776.24557.47561.29022l.0495-.02621.05242.02524v-.00097c.18539-.38146.45232-.63286.79301-.74448.67751-.22325,1.43266.1718,1.43946.17569l.02233.01165.0233-.00776c1.63359-.52706,2.59161,1.90343,2.60423,1.93449m.69304.98035c-.05339-.2446-.12715-.47658-.21548-.6843,2.51687.19316,4.94541.3106,7.45743.59112.18927.31255.37467.62412.55715.93473-2.28586-.37564-4.89397-.68333-7.79909-.84155m.23198,7.12838c1.75686,1.18612.31449,2.116,1.20554,2.63432.95608-.68818,1.14536-2.0034.59791-2.75176-1.4249-1.94322.67459-2.69838,1.12885-4.34944,2.65664,4.10386,5.85102,5.5142,3.42636,8.70082-1.74424,2.29265-5.94323,2.08105-7.24486.23392-1.30066-1.84616.84349-4.0233.88619-4.46786m20.93962-6.17618C35.96415,8.05049,27.91366,0,17.98208,0,8.05146,0,0,8.05049,0,17.98207s8.05146,17.98208,17.98208,17.98208c9.93159,0,17.98208-8.05049,17.98208-17.98208"/></g></svg>