<?xml version="1.0" encoding="UTF-8"?><svg id="Layer_2" xmlns="http://www.w3.org/2000/svg" viewBox="0 0 36 35.99999"><defs><style>.cls-1{fill:#fff;}.cls-2{fill:#c41230;}</style></defs><g id="Icons"><path class="cls-2" d="m36,17.99999c0,9.94154-8.05846,18-18,18C8.06071,35.99999,0,27.94154,0,17.99999S8.06071,0,18,0c9.94154,0,18,8.05846,18,17.99999"/><path class="cls-1" d="m9.08986,10.273c-1.79729,2.07051-2.89463,4.76871-2.89463,7.72654,0,2.39789.72027,4.62644,1.94857,6.48921,1.40442-.46061,2.93076-1.2283,4.36679-2.25339-2.7411-3.33266-3.60136-8.36327-3.42072-11.96237"/><path class="cls-1" d="m13.55892,21.42139c1.27346-1.06121,2.41369-2.32789,3.25589-3.75263-1.65052-2.90366-2.24887-6.62467-1.78826-11.07951-1.65278.42899-3.16784,1.19894-4.4571,2.24209-.52835,3.19719.06773,9.06322,2.98947,12.59006"/><path class="cls-1" d="m16.38966,12.26064c.26417,1.80182.80155,3.39363,1.58956,4.77547,4.56773.13096,7.56397,1.2983,11.30081,4.45258.34094-1.10411.52383-2.27371.52383-3.48846,0-.4561-.03161-.90316-.08128-1.34571-3.90843-3.6578-9.48319-4.81836-13.33291-4.39389"/><path class="cls-1" d="m16.25192,10.94111c3.73683-.40415,8.96612.57578,13.04616,3.63748-1.46764-4.84996-5.96764-8.38359-11.29855-8.38359-.54641,0-1.08154.05194-1.60989.12193-.19192,1.65279-.24159,3.19719-.13773,4.62418"/><path class="cls-1" d="m22.95361,19.19104c-1.50376-.52157-3.10462-.77446-4.99674-.8309-2.13597,3.60813-5.83216,6.10762-8.97968,7.24334.94154,1.11541,2.08404,2.05696,3.37331,2.76368,4.78449-1.19443,8.56422-4.45033,10.60312-9.17612"/><path class="cls-1" d="m14.24894,29.18541c1.18088.39514,2.43853.61867,3.75263.61867,4.80481,0,8.93452-2.87657,10.77471-6.99949-1.62343-1.40668-3.08655-2.41596-4.59257-3.11591-1.97792,4.60612-5.48219,7.92749-9.93477,9.49673"/></g></svg>