<?xml version="1.0" encoding="utf-8"?>
<!-- Generator: Adobe Illustrator 19.2.0, SVG Export Plug-In . SVG Version: 6.00 Build 0)  -->
<svg version="1.1" id="Layer_1" xmlns="http://www.w3.org/2000/svg" xmlns:xlink="http://www.w3.org/1999/xlink" x="0px" y="0px"
	 viewBox="0 0 41 41" style="enable-background:new 0 0 41 41;" xml:space="preserve">
<style type="text/css">
	.st0{fill:#C41230;}
	.st1{fill:#FFFFFF;}
</style>
<g>
	<circle class="st0" cx="20.6" cy="20.5" r="20.3"/>
	<g>
		<path class="st1" d="M29.7,17.1c-0.4,0-0.8,0-1.2,0.1l-1.9-6c-0.4-1.3-1.5-1.6-2.1-1.6H23c-0.4,0-0.6,0.3-0.6,0.6
			c0,0.4,0.3,0.6,0.6,0.6l1.6,0c0.1,0,0.6,0,0.8,0.7l0.5,1.7H15.6L15,11.8h1.4c0.4,0,0.6-0.3,0.6-0.6c0-0.4-0.3-0.6-0.6-0.6h-3.7
			c-0.4,0-0.6,0.3-0.6,0.6c0,0.4,0.3,0.6,0.6,0.6h0.9l0.9,2.2l-1.6,3.4c-0.6-0.2-1.3-0.3-1.9-0.3C7.7,17.1,5,19.8,5,23
			s2.6,5.9,5.9,5.9c3,0,5.5-2.3,5.9-5.3h2c0.2,0,0.3-0.1,0.4-0.2l7.6-7.4l0.5,1.6c-2.1,0.9-3.5,3-3.5,5.4c0,3.3,2.6,5.9,5.9,5.9
			s5.9-2.6,5.9-5.9S32.9,17.1,29.7,17.1z M15.2,15.7l2.7,6.7h-1c-0.2-1.9-1.3-3.4-2.8-4.4L15.2,15.7z M15.5,22.4H12l1.5-3.2
			C14.6,19.9,15.3,21,15.5,22.4z M10.9,27.6c-2.6,0-4.6-2.1-4.6-4.6s2.1-4.6,4.6-4.6c0.5,0,1,0.1,1.4,0.2l-2,4.1
			c-0.1,0.2-0.1,0.4,0,0.6c0.1,0.2,0.3,0.3,0.5,0.3h4.6C15.2,25.9,13.3,27.6,10.9,27.6z M19,21.9l-3-7.4h10.3l0.1,0.2L19,21.9z
			 M29.7,27.6c-2.6,0-4.6-2.1-4.6-4.6c0-1.8,1.1-3.4,2.6-4.2l1.4,4.4c0.1,0.3,0.3,0.4,0.6,0.4c0.1,0,0.1,0,0.2,0
			c0.3-0.1,0.5-0.5,0.4-0.8l-1.4-4.4c0.3,0,0.5-0.1,0.8-0.1c2.6,0,4.6,2.1,4.6,4.6S32.2,27.6,29.7,27.6z"/>
	</g>
</g>
</svg>
