<?xml version="1.0" encoding="UTF-8"?><svg id="Layer_2" xmlns="http://www.w3.org/2000/svg" viewBox="0 0 36.01287 36.01287"><defs><style>.cls-1{fill:#002d62;}.cls-2{fill:#fff;}</style></defs><g id="Icons"><path class="cls-1" d="m36.01287,18.00643c0,9.9451-8.06133,18.00643-18.00643,18.00643C8.06359,36.01287,0,27.95153,0,18.00643S8.06359,0,18.00643,0c9.9451,0,18.00643,8.06133,18.00643,18.00643"/><path class="cls-2" d="m7.30715,16.52607h1.80018v7.86935c.29588.2959.75215.64374,1.26261.72958v-9.85928h-3.06507l10.56173-7.68187c.14682-.10615.37043-.10615.515.00453l10.35167,7.7948c-.0113.00226-.02485.00451-.04518.00451h-3.03797v9.49562c.40431-.08584.8267-.30267,1.26263-.646v-7.58701h1.77534c.5805,0,1.0887-.35461,1.26715-.88315.1694-.50595-.00453-1.04803-.44272-1.37781l-10.37198-7.80836c-.58953-.44496-1.41847-.45174-2.01704-.0158l-10.61141,7.71801c-.44271.32073-.62115.85605-.45625,1.36199.17165.52628.67309.8809,1.25133.8809"/><path class="cls-2" d="m29.36798,24.51987c-.32752-.32751-.85832-.32751-1.18583,0-1.01869,1.01869-2.04866,1.50883-3.06056,1.46139-1.5427-.07679-2.63366-1.38459-2.64043-1.39362-.15359-.18973-.37946-.30267-.62115-.3117-.24169-.0113-.47658.08582-.64372.262-.97802,1.04352-2.01704,1.57657-3.06959,1.55626-1.78213-.01808-3.15768-1.52464-3.16897-1.53818-.15359-.17393-.37495-.27557-.60533-.28234-.23491-.00679-.45852.08582-.62115.25297-1.17454,1.20389-2.30841,1.76405-3.36549,1.66918-1.47494-.13552-2.43036-1.52012-2.4507-1.54721-.25523-.38399-.77247-.49015-1.15872-.23491-.38623.25523-.49239.77474-.23715,1.16098.05647.08358,1.3891,2.06898,3.67492,2.28807.13777.01129.27557.01808.41334.01808,1.25133,0,2.5004-.5421,3.72913-1.6195.74312.61438,2.08931,1.48622,3.75624,1.50882,1.31231.02485,2.55685-.4811,3.7088-1.48622.65277.56016,1.76856,1.29424,3.19833,1.37102,1.50882.07906,2.97247-.57596,4.34802-1.94926.32751-.32751.32751-.8583,0-1.18583"/><path class="cls-2" d="m23.36454,15.04076c-.00227-.16714-.09035-.2846-.17619-.37493-.21007-.22588-.41786-.45627-.61438-.67536-.06099-.06776-.131-.14456-.23715-.19425l-.02033-.00677-.10615-.02033h-.01808c-.16714.00451-.28234.09261-.37269.17619-.22135.20102-.44045.40204-.6618.60307-.35461.32073-.72053.65277-1.0774.98479-.31622.28911-.53983.65954-.66632,1.09773-.05647.20104-.11971.40657-.17844.59404-.03614.03388-.54888.49918-1.22874,1.12032-.67988-.62115-1.1926-1.08645-1.22648-1.11807-.06099-.18973-.12423-.39526-.1807-.5963-.12649-.43819-.3501-.80862-.66632-1.09773-.35689-.32976-.72053-.6618-1.0729-.98253-.22361-.20104-.44496-.40431-.66632-.60533-.09035-.08358-.20553-.17167-.37269-.17619h-.01806l-.10617.02033-.02032.00677c-.10617.04968-.17619.12649-.23943.1965-.19425.21684-.40205.44722-.6121.6731-.08584.09033-.17167.20779-.17619.37493v.01808l.02485.13552.02711.03388c.01129.0113.02032.02485.02936.03841.02483.03614.0542.07453.09487.11067l.23941.2191c.50595.46304,1.02772.94188,1.54495,1.40718.29364.26426.64826.44271,1.05482.5308.14908.03162.30042.06099.44496.09035.08584.01806.17393.03388.25749.05196.08584.07679.56242.51046,1.18808,1.07966-1.21743,1.10902-2.7127,2.47103-3.10121,2.82564-.03162-.00903-.06324-.01582-.09487-.02259-.02032-.00451-.03839-.01129-.05871-.0158-.11294-.02711-.2191,0-.30493.07905-.01129.0113-.02259.02033-.03388.03162-.01356.0113-.02711.02485-.04067.03841-.11293.10615-.11744.24393-.01354.35913.15359.17165.3117.34107.46755.51272l.03839.04293.17167.03162.10164-.08358c.03162-.02485.06324-.05196.09261-.07679.08358-.07003.11971-.17167.10615-.28687-.00451-.0158-.00677-.03162-.00903-.04968-.00451-.03614-.00903-.07227-.01582-.11068.24169-.22135,1.00966-.91929,1.86345-1.69629.42689-.38849.87187-.7928,1.28295-1.16775.4156.37946.86959.79054,1.30327,1.18583.84476.76795,1.60368,1.45912,1.84311,1.67821-.00677.03841-.01129.07455-.0158.11294-.00227.0158-.00453.03162-.00905.0497-.01354.11293.02259.21456.10617.2846.02936.02483.06099.05194.09261.07679l.10164.08358.17165-.03162.03839-.04293c.15585-.17165.31398-.34107.46755-.51272.10617-.1152.0994-.25297-.01354-.3614-.01354-.01129-.02711-.02483-.04065-.03614-.0113-.01129-.02259-.02032-.03614-.03388-.08358-.07679-.18975-.1039-.30267-.07679-.01808.00451-.03839.01129-.05873.0158-.03162.00677-.06099.01356-.09487.02259-.38849-.35461-1.88376-1.71662-3.10121-2.82564.62566-.56919,1.10225-1.00287,1.18808-1.07966.08584-.01808.17165-.0339.25749-.05196.14456-.02936.2959-.05873.44496-.09035.40657-.08809.7612-.26654,1.05482-.5308.51724-.4653,1.039-.94414,1.54495-1.40718l.23943-.21684c.04065-.03839.07002-.07679.09487-.11293.00903-.01356.02033-.02711.02936-.03841l.02711-.03388.02485-.13552v-.01808Z"/></g></svg>