<svg xmlns="http://www.w3.org/2000/svg" viewBox="0 0 40.4 40.4"><defs><style>.a{fill:#c41230;}.b{fill:#fff;}</style></defs><title>bouldering-wall</title><path class="a" d="M40.4,20.2A20.2,20.2,0,1,1,20.2,0,20.2,20.2,0,0,1,40.4,20.2"/><path class="b" d="M31.91,13.52a1.86,1.86,0,1,0-1.86,1.85,1.86,1.86,0,0,0,1.86-1.85"/><path class="b" d="M32.3,19.78s-.81-2.92-1.9-3.43-4.25-1.76-4.25-1.76a8.38,8.38,0,0,1-2-1.22l-2.72-2.31-.54.91s2.43,3.11,2.86,3.53a24.72,24.72,0,0,0,2.94,1.72l-.09,3.23v.31l-.23-.1s-3.73-1.82-4.49-1.81-4.53,1.22-4.53,1.22v1.41l4.35-.91,3.45,2.6-4.06.42a4,4,0,0,0-2.06.92l-3,2.75-1.08,1.41s-1.08,1.42.92.14l4.76-3.07,3,.22a14.75,14.75,0,0,0,5.08-.52s1.43-1.1,1.74-5.75L31,21.41l-.54,4.27s-.15.78.52.86.69-.69.69-.69l.77-3.71a4.9,4.9,0,0,0-.18-2.36"/><polygon class="b" points="14.55 32.98 22.86 7.42 10.63 7.42 10.64 32.98 14.55 32.98"/></svg>