<svg xmlns="http://www.w3.org/2000/svg" viewBox="0 0 40.58 40.58"><defs><style>.a{fill:#c41230;}.b{fill:#fff;}</style></defs><title>broomball</title><circle class="a" cx="20.29" cy="20.29" r="20.29"/><path class="b" d="M23,15.9l-5,3.32a1.55,1.55,0,0,0-.27.24L10.84,27.6a1.22,1.22,0,0,0-.28,1,1.26,1.26,0,0,0,.53.85l5.69,3.87a1.13,1.13,0,0,0,.39.17,1.37,1.37,0,0,0,.38.15l6.78,1.24.22,0a1.25,1.25,0,0,0,1.23-1.14l.85-10.59a1.09,1.09,0,0,0,0-.36l-1.25-5.9,0-.09L31,3.06a19.18,19.18,0,0,0-2.19-1.18l-5.73,14ZM13.61,28.14l2-2.36,1.13,4.48Zm4.21.45-1.05-4.21,1.55-1.85L19,25.62Zm3.57-8.69L20,23.26l-.49-2.12Zm2,12.27-3.7-.67,3.95-2.4Zm.39-4.9-3.71,2.26,1.22-3L24,24.86ZM24.14,23,22.3,24.2l1.38-3.36Z"/><circle class="b" cx="12.13" cy="14.07" r="5.94"/></svg>