<?xml version="1.0" encoding="UTF-8"?><svg id="Layer_2" xmlns="http://www.w3.org/2000/svg" xmlns:xlink="http://www.w3.org/1999/xlink" viewBox="0 0 36 36.00067"><defs><style>.cls-1{fill:none;}.cls-2{clip-path:url(#clippath);}.cls-3{fill:#fff;}.cls-4{fill:#c41230;}</style><clipPath id="clippath"><path class="cls-1" d="m0,17.99841c0,9.94172,8.05828,18.00226,18,18.00226s18-8.06053,18-18.00226C36,8.05897,27.94172.00067,18,.00067S0,8.05897,0,17.99841"/></clipPath></defs><g id="Icons"><path class="cls-4" d="m35.99978,18c0,9.94172-8.05829,18.00002-18.00001,18.00002C8.06031,36.00002.00203,27.94172.00203,18S8.06031,0,17.99977,0c9.94172,0,18.00001,8.05829,18.00001,18"/><g class="cls-2"><path class="cls-3" d="m20.0356,17.85191c0,1.44707-.80945,3.23326-1.40862,3.97489-.32107.40021-.93155.40021-1.25487,0-.20801-.26001-.44316-.64892-.66022-1.10564l-2.06205,1.88795c.667,4.9946,2.26328,8.82251,2.98455,10.35775.1447.30524.57881.30071.71674-.00452.91345-2.0304,3.30336-7.9882,3.30336-14.80745,0-.65344-.03392-1.27295-.06784-1.89473l-1.55332,1.42218c0,.05879.00227.1108.00227.16957"/><path class="cls-3" d="m15.96417,17.85191c0-2.29268.24419-4.15123,2.03492-4.15123.89536,0,1.40183.47481,1.68673,1.23453l1.65733-1.5149c-.68056-5.21392-2.30172-8.96043-3.00716-10.39392-.14018-.28715-.54943-.29393-.70092-.0113-.92476,1.72516-3.28979,6.9436-3.28979,15.13981,0,.54718.02939,1.07398.05653,1.60306l1.5895-1.45157c-.01583-.15375-.02713-.3075-.02713-.45447"/><path class="cls-3" d="m29.95358,8.0463l-.95641-1.04685c-.19897-.21932-.53813-.23514-.75745-.03391l-3.22422,2.94386c-.05426.04973-.09722.11078-.12888.17863l-.71223,1.60984c-.0113.0226-.01809.04521-.02487.06557,0,.00678-.00226.0113-.00452.01582-.00453.02036-.00905.04071-.01131.06105,0,.0068-.00226.01584-.00226.02262-.00226.01584-.00226.02939-.00226.04295v.04523c.00226.00904.00226.01808.00452.02939.00226.02713.00678.05427.01583.07913l-.22384.20576-2.45322,2.23841-1.54428,1.41088-3.73973,3.41415-1.72742,1.57593-2.93255,2.67931c-.02713-.00904-.052-.01808-.07914-.0226-.00904-.00228-.02035-.00454-.02939-.00454-.01357-.00452-.02939-.00452-.04295-.00678-.01583,0-.02939-.00226-.04296-.00226-.00905,0-.01583,0-.02487.00226-.02035,0-.04069.00226-.06105.00678-.00452,0-.00904,0-.01583.00226-.02261.00454-.04522.00906-.06783.0181l-1.66863.563c-.0701.02487-.13566.06331-.18993.11306l-3.22422,2.94384c-.21932.19898-.23289.53812-.03391.75744l.95641,1.04687c.19897.21932.53812.23288.75744.03391l3.22422-2.94386c.05426-.04973.09722-.11078.12888-.17863l.71222-1.6121c.00905-.02036.01809-.04295.02487-.06557,0-.00452.00226-.00904.00226-.01356.00678-.02036.01131-.04071.01357-.06105,0-.00906.00226-.01584.00226-.02487.00226-.01358.00226-.02713.00226-.04297,0-.01356,0-.02938-.00226-.04295,0-.00904,0-.02036-.00226-.02939-.00226-.02713-.00679-.05427-.01583-.07913v-.00226l2.66574-2.43287,1.82917-1.66863,1.42671-1.30236,2.21806-2.02813,1.53524-1.39958,2.94611-2.69061h.00227c.02487.00904.04974.01582.07688.0226.00904.00226.02035.00454.02939.00454.01357.00226.02939.00452.04296.00452.01357.00226.02939.00226.04296.00226h.02261c.02262,0,.04296-.00226.06331-.00678.00453,0,.00905-.00228.01583-.00228.02262-.00452.04522-.0113.06784-.01808l1.66863-.56526c.07009-.02262.13566-.06105.18993-.1108l3.22422-2.94384c.21932-.19898.23289-.53814.03392-.75746"/></g></g></svg>