<?xml version="1.0" encoding="UTF-8"?><svg id="Layer_2" xmlns="http://www.w3.org/2000/svg" viewBox="0 0 36 35.99998"><defs><style>.cls-1{fill:#fff;}.cls-2{fill:#c41230;}</style></defs><g id="Icons"><path class="cls-2" d="m36,17.99998c0,9.94054-8.05947,18-18,18S0,27.94052,0,17.99998,8.05947,0,18,0s18,8.05947,18,17.99998"/><path class="cls-1" d="m13.116,20.65448c.34776,0,.67971-.14903.91231-.41099l2.50207-2.83627,2.86112,2.74596-1.24652,5.09897c-.16033.65262.23937,1.30975.89198,1.46782.0971.02484.1942.03613.28905.03613.54648,0,1.04328-.3726,1.17877-.92585l.12872-.52165c.04742-.09033.09033-.18292.11517-.28679l1.41363-5.77871c.10388-.42227-.02484-.86488-.33873-1.16522l-2.55175-2.44787,2.68273-3.31726,1.72299,1.78169c.18291.18743.43131.29358.69326.29583h.00452c.26195,0,.51035-.10389.69326-.28904l2.94919-2.98985c.37712-.38389.3726-.99812-.00903-1.37524s-.99812-.3726-1.37524.00905l-2.24915,2.28301-2.82499-2.92209c-.18291-.18969-.43583-.29581-.69778-.29581h-4.32443c-.26647,0-.5239.10839-.70681.30259l-3.47535,3.6786c-.36808.39066-.35002,1.00489.04065,1.37298.18743.17838.4268.26646.66617.26646.25743,0,.51487-.10161.70681-.30486l3.1863-3.37146h1.48363l-6.56003,7.43395-4.23636-.12646c-.66842-.0271-1.23071.50809-1.24878,1.17876-.02032.67069.50809,1.23072,1.17877,1.25104l5.50771.16259h.03613"/><path class="cls-1" d="m23.1437,9.53945c1.10425,0,2.00075-.89649,2.00075-2.00074s-.8965-1.9985-2.00075-1.9985-2.00075.89423-2.00075,1.9985.8965,2.00074,2.00075,2.00074"/><rect class="cls-1" x="16.76578" y="18.95416" width="16.71624" height=".97104" transform="translate(-3.60821 32.98877) rotate(-62.97798)"/><rect class="cls-1" x="5.18389" y="13.49963" width="6.26195" height=".97102"/><path class="cls-1" d="m28.41656,26.57951c0,.00453.00903.39293-.21679.63231-.14227.15128-.36808.22582-.67068.22582-1.45653,0-18.63003.04064-18.63003.04064l.00226.97328s17.17125-.04064,18.62777-.04064c.58035,0,1.04554-.1784,1.37749-.53068.51261-.54422.48551-1.27588.48099-1.35717l-.97102.05644Z"/><path class="cls-1" d="m11.49484,26.31011h.00226c.7452,0,1.26007-.52163,1.31652-.5826l-.70907-.66616c-.00226.00226-.28002.27776-.60971.27776-.2055,0-.41551-.11292-.62552-.33422-.71133-.75198-6.90327-7.28039-10.41249-10.98156-.08807.3884-.15581.78585-.21679,1.18328,3.56568,3.75988,9.24501,9.74633,9.92247,10.4667.3997.42229.84908.6368,1.33233.6368"/></g></svg>