<?xml version="1.0" encoding="utf-8"?>
<!-- Generator: Adobe Illustrator 19.2.0, SVG Export Plug-In . SVG Version: 6.00 Build 0)  -->
<svg version="1.1" id="Layer_1" xmlns="http://www.w3.org/2000/svg" xmlns:xlink="http://www.w3.org/1999/xlink" x="0px" y="0px"
	 viewBox="0 0 41 41" style="enable-background:new 0 0 41 41;" xml:space="preserve">
<style type="text/css">
	.st0{fill:#C41230;}
	.st1{fill:#FFFFFF;}
</style>
<g>
	<circle class="st0" cx="20.6" cy="20.5" r="20.3"/>
	<g>
		<path class="st1" d="M6.8,15.7L6.8,15.7c0.3,1.7,1.5,3.4,1.9,3.9c0.2-0.1,0.4-0.2,0.5-0.3C9,18.9,8.4,18,7.8,16.8
			c-0.6-1.2-0.5-2.1-0.4-2.5l-0.6-0.2C6.6,14.8,6.8,15.7,6.8,15.7z"/>
		<path class="st1" d="M7.7,20.8c0.1-0.2,0.2-0.3,0.3-0.5c-0.4-0.3-0.8-0.7-1.5-1.7c-0.7-0.9-1-2.6-1-3.2L5,15.5c0,0.6,0.4,2,1,3.2
			C6.5,19.7,7.3,20.5,7.7,20.8z"/>
		<path class="st1" d="M12.6,20.5c0.9,0.4,1.2,1.2,1.3,1.4c0.3,0.1,0.7,0.5,1,0.7c0-0.4-0.2-0.9-0.2-0.9c-0.5-1.1-1.5-1.7-1.5-1.7
			c-0.1-0.1-0.7-0.5-1.5-0.5c-0.2,0-0.4,0-0.6,0.1c-1.1,0.3-1.7,1.3-1.7,1.3c0,0-0.7,1.2-0.1,2.5c0.5,1,1.1,1.5,1.5,1.7l0.4-0.7
			c-0.2-0.1-0.5-0.4-0.7-0.6c-0.3-0.3-0.6-0.7-0.7-1.2c-0.1-0.4,0-1.1,0.2-1.3c0.1-0.2,0.6-0.7,1-0.8C11.1,20.2,11.5,20,12.6,20.5
			L12.6,20.5z"/>
		<path class="st1" d="M17.1,28.5L17.1,28.5c0,0-0.1-0.9-0.8-2.6c-0.7-1.6-1.6-2.4-1.6-2.4c0,0-0.8-0.8-1.7-1.3
			c-0.8-0.4-1.7-1-1.9-1.2c-0.3,0-0.5,0.2-0.6,0.3c0.5,0.4,1.3,0.9,1.3,0.9c0,0,1.3,0.8,2.2,1.6c0.9,0.8,1.3,1.4,1.9,2.9
			c0.5,1.1,0.4,1.6,0.4,1.9l0.7,0.6C17.2,28.8,17.1,28.5,17.1,28.5z"/>
		<path class="st1" d="M11.7,22.9c-0.3-0.2-1-0.6-1.4-0.8c0,0.5,0.3,0.9,0.3,1c0.2,0.1,1.2,0.8,2.2,1.6c1.2,1,1.8,2.1,1.9,2.2
			c0.4,0.5,0.7,0.8,0.9,1c0-0.2-0.1-0.4-0.1-0.4c0-0.1-0.6-1.6-1.5-2.6C13.4,24.1,12.6,23.4,11.7,22.9z"/>
		<path class="st1" d="M11.1,28.6c0-0.4,0.1-0.8,0.1-1.1c0.1-0.5,0.7-1.9,1-2.4c-0.2-0.2-0.3-0.3-0.4-0.3c-0.3,0.4-1.1,1.6-1,2.5
			C10.8,27.9,11,28.3,11.1,28.6z"/>
		<path class="st1" d="M12.7,25.5c-0.2,0.4-0.4,0.9-0.5,1.3c-0.1,0.2-0.1,0.3-0.2,0.4c-0.1,0.3-0.3,1.8-0.3,2.2c0,0.3,0.6,1.4,1.5,2
			c0.5,0.3,1,0.3,1.3,0.3c-0.3-0.3-0.9-0.9-1-1c-0.3-0.1-0.6-0.4-0.6-0.5c0,0-0.6-0.9-0.4-1.9c0.2-0.8,0.6-1.8,0.7-2.2
			C13.1,25.9,12.9,25.7,12.7,25.5z"/>
		<path class="st1" d="M15.7,28.7c-0.6-0.5-1.5-1.5-1.9-2l-0.3,0.8c0.6,0.9,1.9,2,1.9,2c0,0,2,1.8,2.8,3c0.7,1,2.1,2.5,2.5,2.9
			l0.4-0.4c-0.9-0.9-2.2-2.6-2.5-3l0.1-0.1L18.7,32l0,0C17.9,31,16.3,29.2,15.7,28.7z"/>
		<path class="st1" d="M17.2,32.2C17,32,15.8,30.7,15,30.1c-0.7-0.5-1.4-1.3-1.8-1.8c-0.1,0.5,0,0.9,0,1c0.2,0.2,0.7,0.7,1.2,1.3
			c0.3,0.3,0.6,0.6,1,1c0.5,0.6,1.1,1.1,1.5,1.5c0.6,0.6,2.6,3.1,3.1,3.7l0.5-0.5C19.4,35.3,17.3,32.4,17.2,32.2z"/>
		<path class="st1" d="M8.1,21.6c0,0-0.4,1,0,1.8c0.4,0.9,1.1,1.9,1.4,2.2c0.2,0.2,0.5,0.5,0.7,0.7c0.1-0.2,0.1-0.4,0.3-0.7
			c-0.4-0.3-1.4-1.1-1.7-2c-0.4-1-0.3-1.8-0.3-1.9c0-0.1,0.2-0.8,0.7-1.5c-0.1,0.1-0.2,0.1-0.2,0.2C8.5,20.8,8.1,21.6,8.1,21.6z"/>
		<path class="st1" d="M31.2,8.9L31.2,8.9c-0.1,0-0.8-0.7-2.3-1.4c-1.4-0.6-3.6-1.3-6.6-1.1c-5.5,0.3-6.8,1.5-8.1,2.7l-0.2,0.2
			c-1.3,1.2-2.3,4.3-2.3,4.3c-0.5,1.3,0.3,1.7,0.3,1.7l0,0c0.8,0.2,2.9,0.9,4.2,1.2c1.7,0.4,2.2,1.1,2.2,1.1l0,0
			c0,0,0.2,0.4,0.9,0.4c0.9,0,3.7-0.6,3.8-0.6l0,0c2.6,0.1,3.5,2,3.9,3c0.1,0.2,0.1,0.3,0.2,0.4c0.3,0.6,0.9,0.5,0.9,0.5l2.2-0.3
			c1-0.3,2.2-0.7,2.4-1c-0.1-0.5,0.1-1.2,0.1-1.3c0.4-1,0.5-2.5,0.6-2.5C34.3,11,31.3,8.9,31.2,8.9z"/>
		<g>
			<path class="st1" d="M18.8,18.6l2.2,4.7l0.6-0.5l-1.8-4.2C19.4,18.6,19,18.6,18.8,18.6z"/>
		</g>
		<g>
			<path class="st1" d="M27.5,21.8c-0.2-0.2-0.5-0.6-0.6-0.7l-4.4,2.1l0.6,0.8L27.5,21.8z"/>
		</g>
		<g>
			<path class="st1" d="M20.7,24.5c-0.2,0.2-1.2,1-1,3c0,0,0.1,0.9,0.2,1.3l0.9-0.3c-0.1-0.4-0.6-2.5,0.4-3.4L20.7,24.5z"/>
		</g>
		<path class="st1" d="M22.3,29.6c-0.1-0.3-0.5-1.7-0.5-1.7l0-0.1c-0.1-0.1-0.3-0.4-0.7-0.3l-0.1,0l0.1,0.6l0.1,0c0,0,0,0,0.1,0
			c0,0.1,0.1,0.3,0.2,0.6l-1.8,0.5l-0.1-0.5c0-0.1,0-0.2,0-0.2c0,0,0-0.1,0-0.1l0-0.5l-0.1,0c0,0-0.2,0-0.3,0.2
			c-0.1,0.2-0.1,0.4-0.1,0.6c0.1,0.4,0.3,1.4,0.4,1.6l0,0.1c0.1,0.2,0.3,0.4,0.6,0.4c0,0,0,0,0.1,0c0.3,0,1.7-0.4,1.8-0.5
			C22.1,30.3,22.4,29.9,22.3,29.6z M21.7,29.7c0,0-0.1,0.1-0.2,0.1c-0.7,0.2-1.5,0.4-1.7,0.4c0,0,0,0,0,0c0,0,0-0.1-0.1-0.5l1.9-0.5
			C21.7,29.6,21.7,29.7,21.7,29.7z"/>
		<g>
			<path class="st1" d="M21.4,24.3c0.1,0.1,0.4,0.5,0.6,0.7c0,0,0.1,0,0.2,0c0.1-0.1,0.4-0.3,0.5-0.4c0,0,0-0.1,0-0.2
				c-0.1-0.2-0.5-0.8-0.5-0.8c0-0.1-0.2-0.2-0.2-0.2L21.3,24h0C21.3,24,21.2,24.1,21.4,24.3z"/>
		</g>
	</g>
</g>
</svg>
