<?xml version="1.0" encoding="utf-8"?>
<!-- Generator: Adobe Illustrator 19.2.0, SVG Export Plug-In . SVG Version: 6.00 Build 0)  -->
<svg version="1.1" id="Layer_1" xmlns="http://www.w3.org/2000/svg" xmlns:xlink="http://www.w3.org/1999/xlink" x="0px" y="0px"
	 viewBox="0 0 41 41" enable-background="new 0 0 41 41" xml:space="preserve">
<circle fill="#C41230" cx="20.6" cy="20.4" r="20.3"/>
<g>
	<path fill="#FFFFFF" d="M10.5,27.6l-0.9,3.6l3.4-0.9C13,30.3,12.6,28.3,10.5,27.6z"/>
	<g>
		<path fill="#FFFFFF" d="M28.4,13.8c-0.2-0.3-0.4-0.6-0.7-0.9c-0.2-0.2-0.4-0.4-0.7-0.6L13.5,26l0,0l1.5,1.4L28.4,13.8z"/>
	</g>
	<path fill="#FFFFFF" d="M25.4,28.2c0,0,0.3-1.4,1.9-1.6c2-0.3,2.8,0.9,2.8,0.9s0.5,0.7,0.5,1.4c0.1,0.7,0.8,1.2,0.8,1.2
		s0.5,0.4,1.9,0.5c0,0-2.3,1-4.4,0.7c-1.9-0.2-2.6-0.9-2.6-0.9S25,29.4,25.4,28.2z"/>
	<path fill="#FFFFFF" d="M31.3,11.1c0,0-0.3-0.4-1.4-1.4c-1.5-1.4-3,0.1-3,0.1L26,10.8c0.9,0.1,1.7,0.7,2.5,1.5
		c0.8,0.8,1.3,1.7,1.4,2.6c0.1-0.1-0.1,0.1,1-1C32.3,12.4,31.3,11.1,31.3,11.1z"/>
	<g>
		<path fill="#FFFFFF" d="M26.5,12.1c-0.4-0.2-0.9-0.4-1.3-0.5L21.8,15L11.3,25.5l1.5,0.3L26.5,12.1z"/>
		<path fill="#FFFFFF" d="M25.2,11.6c0.5,0.1,0.9,0.2,1.3,0.5L12.8,25.8l-1.5-0.3L21.8,15L25.2,11.6"/>
	</g>
	<g>
		<path fill="#FFFFFF" d="M15.1,28l0.3,1.4l10.6-10.5l3.1-3.1c0-0.5-0.1-0.9-0.4-1.4L15.1,28z"/>
	</g>
	<path fill="#FFFFFF" d="M10.9,13.9l5.5,5.4l2.9-2.9c-1-1.3-3.4-4.3-4.6-5.8c-1.5-1.9-3-1.7-3-1.7S10,9,9.7,10.7
		C9.3,12.4,10.9,13.9,10.9,13.9z M13.9,11l-0.6,0.4c0,0-0.6-1.2-2.2-1.7C11.2,9.8,13.1,9.3,13.9,11z"/>
	<path fill="#FFFFFF" d="M23.7,22.3l-1.6,1.6l-0.4,0.5c0,0,1.9,2,2.3,2.3c0,0,0,0,0,0c0.3,0.2,0.7,0.2,0.9,0
		c0.4-0.4,0.7-0.7,0.9-0.9c0.4-0.5,0-1,0-1L23.7,22.3z"/>
</g>
</svg>
