<svg xmlns="http://www.w3.org/2000/svg" viewBox="0 0 40.58 40.58"><defs><style>.a{fill:#c41230;}.b{fill:#fff;}</style></defs><title>crosscountry-skiing</title><circle class="a" cx="20.29" cy="20.29" r="20.29"/><path class="b" d="M14.78,23.28a1.38,1.38,0,0,0,1-.46l2.82-3.2,3.23,3.1-1.41,5.74a1.37,1.37,0,0,0,1,1.66,1.22,1.22,0,0,0,.32,0,1.37,1.37,0,0,0,1.33-1l.15-.59a1.79,1.79,0,0,0,.13-.32L25,21.69a1.36,1.36,0,0,0-.38-1.31l-2.88-2.76,3-3.74,1.94,2a1.09,1.09,0,0,0,.78.33h0a1.11,1.11,0,0,0,.78-.33l3.32-3.37A1.09,1.09,0,1,0,30,11l-2.54,2.57-3.18-3.3a1.1,1.1,0,0,0-.79-.33H18.64a1.1,1.1,0,0,0-.8.34l-3.91,4.15a1.09,1.09,0,0,0,.79,1.85,1.11,1.11,0,0,0,.8-.35l3.59-3.8h1.67L13.39,20.5l-4.78-.14a1.37,1.37,0,1,0-.08,2.74l6.21.18Z"/><path class="b" d="M26.09,10.75A2.26,2.26,0,1,0,23.83,8.5,2.25,2.25,0,0,0,26.09,10.75Z"/><rect class="b" x="18.9" y="21.36" width="18.84" height="1.1" transform="translate(-4.07 37.18) rotate(-62.98)"/><rect class="b" x="5.84" y="15.22" width="7.06" height="1.1"/><path class="b" d="M32,30a1.12,1.12,0,0,1-.24.71,1,1,0,0,1-.76.26L10,31v1.09l21,0a2,2,0,0,0,1.55-.6,2.16,2.16,0,0,0,.54-1.53Z"/><path class="b" d="M13,29.66h0A2.15,2.15,0,0,0,14.44,29l-.8-.75a1.11,1.11,0,0,1-.68.31h0a1,1,0,0,1-.71-.37L.51,15.81c-.1.44-.17.88-.24,1.33l11.19,11.8A2,2,0,0,0,13,29.66Z"/></svg>