<?xml version="1.0" encoding="utf-8"?>
<!-- Generator: Adobe Illustrator 19.2.0, SVG Export Plug-In . SVG Version: 6.00 Build 0)  -->
<svg version="1.1" id="Layer_1" xmlns="http://www.w3.org/2000/svg" xmlns:xlink="http://www.w3.org/1999/xlink" x="0px" y="0px"
	 viewBox="0 0 41 41" style="enable-background:new 0 0 41 41;" xml:space="preserve">
<style type="text/css">
	.st0{fill:#C41230;}
	.st1{fill:#FFFFFF;}
</style>
<g>
	<circle class="st0" cx="20.5" cy="20.5" r="20.3"/>
	<g>
		<g>
			<g>
				<path class="st1" d="M20.7,5.6c-0.9,3.2-4.9,4.6-2.2,8.3c1,1.4,0.7,3.9-1.1,5.3c-1.7-1,1.1-2.8-2.3-5c-0.1,0.9-4.2,5-1.7,8.5
					c2.5,3.5,10.5,3.9,13.9-0.4C31.9,16.1,25.8,13.4,20.7,5.6z M23.2,23.8C20.7,25,15,24,16.3,20.5c0.2,0.6,1.1,1.2,1.8,1.4
					c1.9-0.5,2.8-2.7,3.3-4.4c1.2,3.2,4.7,1.4,4.1-2.3C27.4,17.9,26.7,22.1,23.2,23.8z"/>
			</g>
		</g>
		<path class="st1" d="M15.7,26.2c-1.7-0.3-3-0.7-3-0.7v3.2h3l-4.6,2.1l1.9,2.2l6.1-3.6l-0.4,2.8l1.8,1.3l1.8-1.4l-0.3-3.2l5.4,4
			l1.3,0l1.2-1.4l-4-2.9l3.4,0v-2.1l-1.5-1.1c0,0-4.3,1.4-7.2,1.4C19,26.8,17.2,26.5,15.7,26.2"/>
	</g>
</g>
</svg>
