<?xml version="1.0" encoding="utf-8"?>
<!-- Generator: Adobe Illustrator 19.2.0, SVG Export Plug-In . SVG Version: 6.00 Build 0)  -->
<svg version="1.1" id="Layer_1" xmlns="http://www.w3.org/2000/svg" xmlns:xlink="http://www.w3.org/1999/xlink" x="0px" y="0px"
	 viewBox="0 0 41 41" style="enable-background:new 0 0 41 41;" xml:space="preserve">
<style type="text/css">
	.st0{fill:#C41230;}
	.st1{fill:#FFFFFF;}
</style>
<g>
	<circle class="st0" cx="20.5" cy="20.5" r="20.3"/>
	<path class="st1" d="M7.3,18.1c0.4,7.4,4.9,10,5,10c0,0,0,0,0,0c4.3,3,10.6,4.2,10.6,4.2c0,0,0,0,0,0c2.4,0.8,4.8,3.2,5.4,3.8
		c0.2-0.5,0.3-0.9,0.1-1.4c-0.7-2-2.4-3.3-2.4-3.3c0,0,0-0.1,0-0.1s0-0.1,0.1-0.1c2.5-1.5,2.5-4,2.4-4.7c-2,2.2-3.8,2.9-3.8,2.9
		c-0.1,0-1.9,0.8-4.6-1.3c-0.8-0.7-1.7-1.4-2.3-2.2C16.6,24,16,22,16,19.9c-4.7-1.4-5.5-4.1-5.5-4.2c0-0.1,0-0.1,0.1-0.1
		c0.1,0,0.1,0,0.1,0c1.7,2.1,3.8,2.9,5.4,3.2c0.1-0.9,0.2-1.5,0.3-1.9c0.2-0.6,0.4-1.3,0.6-1.9c0.3-0.7,0.4-1.3,0.5-2.2
		c0.1-1.3-0.1-3.1-0.8-3.9c-0.2-0.2-0.4-0.4-0.6-0.5c0,0,0,0-0.1-0.1c0,0,0-0.1,0-0.1c0.4-0.7,1-1.2,1.6-1.4c0.7-0.2,1.4,0,2.1,0.7
		c0.6,0.5,0.9,1.1,1,1.2c0,0,0,0,0,0C21,9.2,21.8,10,23.1,10c0.4,0,0.8-0.1,1.3-0.2c2.1-0.7,1.9-3.3,1.4-4.6
		c-0.1-0.2-0.3-0.3-0.5-0.3C25.1,5,25,5.2,25.1,5.5c0,0,0.9,2.9-0.9,3.6c-1.9,0.6-2.6-0.6-2.7-0.8c-0.1-0.1-1.8-3-4-2.3
		c-0.9,0.3-1.6,0.9-2.2,1.9c0,0-0.1,0.1-0.1,0.1c-0.1,0-0.1,0-0.2,0c-0.2,0-0.3,0-0.5,0c-0.7,0-1.5,0.2-2.1,0.6
		C8.8,10.6,7.1,13.9,7.3,18.1z M12.9,10.8c0.8,0,1.4,0.6,1.4,1.4c0,0.8-0.6,1.4-1.4,1.4s-1.4-0.6-1.4-1.4
		C11.5,11.4,12.1,10.8,12.9,10.8z M11.7,24.6c0.3-0.5,1.7-1.5,2.1-1.8l-1.5-2.5c0-0.1,0-0.1,0-0.2c0,0,0.1,0,0.2,0l2.5,2.6
		c0,0,0,0.1,0,0.1c0,0,0,0.1,0,0.1c-1.4,1.1-3.4,3.4-3.4,3.4c0,0-0.1,0-0.1,0c0,0,0,0,0,0c0,0-0.1,0-0.1-0.1
		c-1.1-2.5-1.6-6.8-1.6-6.8c0-0.1,0-0.1,0.1-0.1c0.1,0,0.1,0,0.1,0.1C10.5,21.3,11.4,24.2,11.7,24.6z"/>
</g>
</svg>
