<?xml version="1.0" encoding="UTF-8"?><svg id="Layer_2" xmlns="http://www.w3.org/2000/svg" viewBox="0 0 54 54"><defs><style>.cls-1{fill:#002d62;}.cls-2{fill:#fff;}</style></defs><g id="Icons"><circle class="cls-1" cx="27" cy="27" r="27"/><path class="cls-2" d="m44.27995,23.04632v-3.64898l-16.32745-8.79167-16.32739,8.79167v3.61089l-6.20125,3.61086h1.25594v9.23817h42.54554v-9.23817h1.19045l-6.13583-3.57276Zm-1.07276,3.57276v7.79578h-3.8203v-7.79578h3.8203Zm-4.91911,0v7.79578h-3.82029v-7.79578h3.82029Zm-4.91933,0v7.79578h-2.04077v-7.79578h2.04077Zm-5.04129-9.2056h1.95403v1.95413h-1.95403v-1.95413Zm0,2.70392h1.95403v1.95405h-1.95403v-1.95405Zm-2.70395-2.70392h1.95417v1.95413h-1.95417v-1.95413Zm0,2.70392h1.95417v1.95405h-1.95417v-1.95405Zm-1.04637,6.50168v7.79578h-2.041v-7.79578h2.041Zm-3.13981,0v7.79578h-3.82029v-7.79578h3.82029Zm-4.91933,0v7.79578h-3.82007v-7.79578h3.82007Zm-8.73918,0h3.82007v7.79578h-3.82007v-7.79578Zm17.89736,7.79578v-7.79578h4.55276v7.79578h-4.55276Zm18.62982,0v-7.79578h3.82029v7.79578h-3.82029Z"/></g></svg>