<?xml version="1.0" encoding="UTF-8"?><svg id="Layer_2" xmlns="http://www.w3.org/2000/svg" viewBox="0 0 36 36"><defs><style>.cls-1{fill:#fff;}.cls-2{fill:#c41230;}</style></defs><g id="Icons"><path class="cls-2" d="m36,18c0,9.94161-8.05839,18-18,18S0,27.94161,0,18,8.05839,0,18,0s18,8.05839,18,18"/><path class="cls-1" d="m28.54672,8.95534v-.18043c-.05187-.24583-.21426-.3992-.40822-.54129-.56609-.41724-1.12542-.8435-1.68475-1.26751-.14885-.11502-.29771-.22779-.4849-.2729h-.15787c-.24358.05413-.3992.21877-.54354.41048-1.08708,1.45019-2.18544,2.89362-3.26576,4.34833-.56835.76457-.87508,1.63513-.96304,2.58238-.04285.48039-.09923.96078-.15336,1.43892-.00677.06315-.03609.13081-.07217.18268-.19847.26388-1.36675,1.81556-2.81694,3.74164-1.45019-1.92607-2.61847-3.47776-2.81694-3.74164-.03834-.05187-.0654-.11953-.07217-.18268-.05638-.47814-.11051-.95853-.15336-1.43892-.08796-.94725-.39469-1.81782-.96304-2.58238-1.08032-1.4547-2.17867-2.89813-3.26576-4.34833-.14434-.19171-.29996-.35635-.54354-.41048h-.15788c-.18719.04511-.33605.15787-.4849.2729-.56158.42401-1.12091.85027-1.68475,1.26751-.19396.14209-.35635.29545-.40822.54129v.18043c.06089.11502.106.24132.18268.34507,1.1164,1.48628,2.22829,2.97256,3.35371,4.44982.52775.69014,1.20887,1.19534,2.00727,1.5359.50971.21426,1.02619.41499,1.54041.62473.04962.0203.09924.05413.13307.09698.27966.36762,1.48628,1.96667,2.9455,3.90628-2.14484,2.84626-4.75429,6.31274-5.83912,7.75391-.05187.06992-.106.10149-.19622.09021-.14885-.01579-.29996-.01804-.45107-.02706-.13081-.00902-.23456.0406-.31124.1466-.04736.06315-.09698.1263-.14209.18945-.08345.11502-.07443.19171.0406.27966.42626.32252.85478.64278,1.28104.96304h.09021c.08345-.09923.16915-.19847.25034-.29996.07668-.09698.09021-.20524.04962-.32026-.04736-.13983-.08796-.28192-.1466-.41499-.04285-.10149-.02255-.16915.0406-.25486,1.0104-1.33517,3.57023-4.73625,5.72184-7.59153,2.15161,2.85528,4.71144,6.25636,5.71958,7.59153.06541.0857.0857.15336.04285.25486-.05864.13307-.09924.27515-.14885.41499-.03834.11502-.02481.22328.05187.32026.08119.10149.1669.20073.25034.29996h.09021c.42626-.32026.85478-.64052,1.28104-.96304.11502-.08796.12405-.16464.0406-.27966-.04511-.06315-.09472-.1263-.14209-.18945-.07668-.106-.18043-.15562-.31124-.1466-.15111.00902-.30222.01128-.45107.02706-.09021.01128-.14434-.0203-.19622-.09021-1.08483-1.44117-3.69427-4.90766-5.83912-7.75391,1.45922-1.93961,2.66583-3.53865,2.9455-3.90628.03157-.04285.08345-.07668.13307-.09698.51197-.20975,1.0307-.41048,1.53815-.62473.80065-.34056,1.48177-.84576,2.00727-1.5359,1.12768-1.47726,2.23957-2.96354,3.35597-4.44982.07668-.10375.12179-.23005.18268-.34507"/></g></svg>