<?xml version="1.0" encoding="utf-8"?>
<!-- Generator: Adobe Illustrator 19.2.0, SVG Export Plug-In . SVG Version: 6.00 Build 0)  -->
<svg version="1.1" id="Layer_1" xmlns="http://www.w3.org/2000/svg" xmlns:xlink="http://www.w3.org/1999/xlink" x="0px" y="0px"
	 viewBox="0 0 57 57" style="enable-background:new 0 0 57 57;" xml:space="preserve">
<style type="text/css">
	.st0{fill:#002D62;}
	.st1{fill:#FFFFFF;}
</style>
<g>
	<circle class="st0" cx="28.5" cy="28.5" r="28.1"/>
	<g>
		<rect x="6.2" y="22" class="st1" width="14.1" height="3.1"/>
		<polygon class="st1" points="34.5,36.7 21.3,34.5 21.3,36.7 		"/>
		<polygon class="st1" points="21.3,24.3 50.5,24.3 50.5,20.9 36,20.9 36,18.6 34.5,18.6 34.5,20.9 21.3,20.9 		"/>
		<path class="st1" d="M12.7,33.7h7.6v-7.6H7.7v10.7h4.1l0-6.9h0.9V33.7z M16.7,26.9h2.9v6.3h-2.9V26.9z M13.4,26.9h2.9v6.3h-2.9
			V26.9z"/>
		<g>
			<polygon class="st1" points="29.4,33.3 29.4,35 32.8,35.5 32.8,34 			"/>
			<polygon class="st1" points="25.1,32.5 25.1,34.2 28.5,34.8 28.5,33.2 			"/>
			<polygon class="st1" points="21.3,36.7 34.2,36.7 21.3,34.5 			"/>
			<polygon class="st1" points="33.7,34.1 33.7,35.7 35.7,36 35.7,34.5 			"/>
			<path class="st1" d="M49.2,36.7V25.2H21.3v5.7l15.4,2.9v2.9H49.2z M44.6,26.4h2.6V28h-2.6V26.4z M44.6,28.4h2.6v1.7h-2.6V28.4z
				 M41.6,26.4h2.6V28h-2.6V26.4z M41.6,28.4h2.6v1.7h-2.6V28.4z M38.5,26.4h2.6V28h-2.6V26.4z M38.5,28.4h2.6v1.7h-2.6V28.4z
				 M35.5,26.4H38V28h-2.6V26.4z M25.8,30.2h-2.6v-1.7h2.6V30.2z M25.8,28h-2.6v-1.6h2.6V28z M28.8,30.2h-2.6v-1.7h2.6V30.2z
				 M28.8,28h-2.6v-1.6h2.6V28z M31.9,30.2h-2.6v-1.7h2.6V30.2z M31.9,28h-2.6v-1.6h2.6V28z M35,30.2h-2.6v-1.7H35V30.2z M35,28
				h-2.6v-1.6H35V28z M35.5,30.2v-1.7H38v1.7H35.5z"/>
			<polygon class="st1" points="24.2,32.4 21.3,31.8 21.3,33.6 21.3,33.6 24.2,34.1 			"/>
		</g>
		<g>
			<rect x="12.7" y="34.6" class="st1" width="7.6" height="0.7"/>
			<rect x="12.7" y="36.2" class="st1" width="7.6" height="0.6"/>
		</g>
	</g>
</g>
</svg>
