<svg id="Layer_1" data-name="Layer 1" xmlns="http://www.w3.org/2000/svg" viewBox="0 0 40.5796 40.5796"><title>low-ropes</title><circle cx="20.2898" cy="20.2898" r="20.2898" style="fill:#c41230"/><path d="M33.9856,26.4119c1.0645,0,2.2412-2.0107,2.6846-4.5942.4033-2.3472.0811-4.4956-.7656-5.1089l-.0039-.0024a.732.732,0,0,0-.2549-.17,7.1519,7.1519,0,0,0-1.4316-.39v.0015l-.0215-.0049a.0282.0282,0,0,1-.02-.0347l.001-.0156v-.9209a.8956.8956,0,0,1-.3848.1484v.7725a.1912.1912,0,0,0,.1748.19v.0508l-.0078,0-.0166.001a.2968.2968,0,0,1-.2949-.2622,6.664,6.664,0,0,0-.9355-.0254V16.05l-.0205.0054H32.676c-1.1016,0-2.3086,2.0073-2.751,4.5825-.4521,2.6313.0361,4.9385,1.1113,5.2524l.0078.0034.0088.0063a.4244.4244,0,0,0,.0537.0342,6.6733,6.6733,0,0,0,2.8428.4849l.0029-.0073.0176,0Zm-.7529-3a6.418,6.418,0,0,1,.0215-2.2905,6.4248,6.4248,0,0,1,.7441-2.166c.31-.5137.6484-.79.9629-.79a.5367.5367,0,0,1,.0889.0073c.6914.1191,1.0107,1.6348.7109,3.3789a6.4072,6.4072,0,0,1-.7451,2.166c-.31.5137-.6484.79-.9629.79a.5455.5455,0,0,1-.0889-.0073C33.6243,24.4416,33.3645,24.0549,33.2327,23.4114Z" style="fill:#fff"/><path d="M25.9465,29.4773a6.7091,6.7091,0,0,0,.5313-13.3779l-.0459-.0039V15.0867l.0645.02a.466.466,0,0,0,.2227.0093l.0107-.0049.0166-.0054a.2878.2878,0,0,0,.2422-.2837c0-.1338-.08-.4458-.6172-1.0322l-.0654-.0723.0967-.0112c.0547-.0063.09-.0068.0908-.0068l.0146-.0015.04-.0039.0166.0186a3.6291,3.6291,0,0,1,.3818.5073.7694.7694,0,0,0,.1357-.6836.683.683,0,0,0-.5078-.4014.29.29,0,0,0-.0527-.01l-.0234-.0024-.0156,0H26.48a1.46,1.46,0,0,0-1.2891.728.7274.7274,0,0,0-.043.125l-.0059.0166a.8.8,0,0,0-.0166.1045.6534.6534,0,0,0,.0693.3579.9915.9915,0,0,0,.5039.4189v-.7148a.2086.2086,0,0,1,.0205-.0713.1749.1749,0,0,1,.0166-.0332l.04-.0654.0488.0542a.2465.2465,0,0,0,.0254.0337l.0664.0708-.002,2.0435a.2574.2574,0,0,0,.1016.2041l.1836.1416-.2256-.0532a.3568.3568,0,0,1-.2754-.3481v-.0542a6.4185,6.4185,0,0,0-4.4316,2.0239,6.7536,6.7536,0,0,0-1.8486,4.6709A6.6243,6.6243,0,0,0,25.9465,29.4773Zm-.0146-10.6665A3.9416,3.9416,0,1,1,22.1194,22.75,3.8815,3.8815,0,0,1,25.9319,18.8108Z" style="fill:#fff"/><path d="M22.2779,20.9877a8.8079,8.8079,0,0,0-7.0441-5.4342V14.091a1.5776,1.5776,0,0,1-.78.3142v1.4223a.3888.3888,0,0,0,.3436.3854.4448.4448,0,0,1-.0453.0047.4792.4792,0,0,1-.47-.4876v-.208a7.0467,7.0467,0,0,0-1.5967.2327,3.1718,3.1718,0,0,0-.54.1182,8.851,8.851,0,0,0-4.17,3.0734,7.39,7.39,0,0,0-.53.7452c-.2449.3781-.3682.6236-.3682.6236l.0049.0282a8.9221,8.9221,0,0,0-.0857,7.4524,8.5915,8.5915,0,0,0,7.5913,5.4022l.0357.0028c3.8728.1425,6.5733-3.1088,6.5733-3.1088v-.0356A8.7684,8.7684,0,0,0,22.2779,20.9877Zm-6.1361,8.4545a4.9449,4.9449,0,0,1-6.3173-2.946,4.9448,4.9448,0,0,1,2.2116-6.61,4.9448,4.9448,0,0,1,6.3174,2.946A4.9449,4.9449,0,0,1,16.1418,29.4422Z" style="fill:#fff"/><path d="M14.4622.8593V11.5686l-.0811-.0669a.613.613,0,0,1-.2295-.478v-.96a.8367.8367,0,0,0-.6855.3379c-.4463.6353.2627,1.897.9355,2.8442l.0469.0659-.08.0122a.65.65,0,0,1-.1113.0093.34.34,0,0,1-.2656-.0928.4347.4347,0,0,0-.0508-.0527l-.0078-.01a6.4511,6.4511,0,0,1-.5908-1.12,3.5222,3.5222,0,0,0-.2187.8477,1.1006,1.1006,0,0,0,.1973.8267l.0176.0283a1.1544,1.1544,0,0,0,.918.4082c.0078,0,.08-.0044.0918-.0054a2.4151,2.4151,0,0,0,.3076-.05l.0234-.0063a2.1648,2.1648,0,0,0,1.2119-.9146,1.5043,1.5043,0,0,0,.252-1.1455,2.1173,2.1173,0,0,0-.8076-1.1841l-.0186-.0146V.64C15.0313.7115,14.7426.7753,14.4622.8593Z" style="fill:#fff"/><path d="M25.8353.7867V12.992a1.9545,1.9545,0,0,1,.6168-.1293V.9593C26.2494.8947,26.0408.845,25.8353.7867Z" style="fill:#fff"/><path d="M33.721,5.11v8.85l-.041-.0337a.2883.2883,0,0,1-.1074-.2246v-.4443a.3843.3843,0,0,0-.3154.1563c-.207.2949.123.8809.4355,1.3213l.0244.0337-.041.0063a.2946.2946,0,0,1-.05.0044.1614.1614,0,0,1-.1279-.0444l-.0215-.022-.0049-.0054a3.1135,3.1135,0,0,1-.2744-.5176,1.655,1.655,0,0,0-.1.3887.51.51,0,0,0,.0908.3823l.0088.0142.0068.0059.01.01a.4564.4564,0,0,0,.0439.043.4706.4706,0,0,0,.1006.0674l.0059.0044a.5841.5841,0,0,0,.0605.0229.3616.3616,0,0,0,.0371.0117.521.521,0,0,0,.06.0132.6558.6558,0,0,0,.0771.0083H33.6c.0049,0,.0137.0024.0234.0024l.0078,0,.0332-.002a.8174.8174,0,0,0,.1143-.0127l-.002-.002.042-.0112a1.008,1.008,0,0,0,.5635-.4253.6981.6981,0,0,0,.1172-.5317.983.983,0,0,0-.375-.5488l-.01-.0078V5.468Q33.92,5.2866,33.721,5.11Z" style="fill:#fff"/></svg>