<?xml version="1.0" encoding="UTF-8"?><svg id="Layer_2" xmlns="http://www.w3.org/2000/svg" viewBox="0 0 36 36"><defs><style>.cls-1{fill:#fff;}.cls-2{fill:#c41230;}.cls-3{fill:#d2232a;}.cls-4{fill:none;stroke:#d2232a;stroke-miterlimit:10;stroke-width:.111px;}</style></defs><g id="Icons"><path class="cls-2" d="m36,17.99998c0,9.94055-8.05947,18.00002-18.00002,18.00002S0,27.94053,0,17.99998,8.05947,0,17.99998,0s18.00002,8.05947,18.00002,17.99998"/><path class="cls-1" d="m21.41979,6.17862c-.53746-.99133-1.96013-.99133-2.49756,0l-3.71924,6.84457-.92135-1.69588c-.5397-.99137-1.9601-.99137-2.49756,0l-6.86487,12.63228c-.79489,1.46105.26422,3.24049,1.92623,3.24049h22.30861c1.66428,0,2.72112-1.77944,1.9285-3.24049L21.41979,6.17862Z"/><path class="cls-3" d="m23.90019,24.91795c-1.5401,0-2.79113-1.25328-2.79113-2.79337,0-1.111.65034-2.07074,1.59203-2.52013l.83328,2.63532c.05193.16484.20323.2687.36583.2687.03839,0,.07677-.00451.11516-.01806.20323-.06323.31387-.27776.25064-.48099l-.83324-2.63756c.15354-.02484.30936-.03839.46745-.03839,1.54006,0,2.7911,1.25104,2.7911,2.7911s-1.25104,2.79337-2.7911,2.79337m-6.4223-3.46856l-1.78171-4.4396h6.18744l.02936.0971-4.43509,4.3425Zm-4.87542,3.46856c-1.53782,0-2.79113-1.25328-2.79113-2.79337s1.25331-2.7911,2.79113-2.7911c.29581,0,.57809.04514.84455.13097l-1.19005,2.49529c-.05648.1197-.04741.2597.02257.37035.07002.11064.19196.17838.32293.17838h2.76626c-.18741,1.35944-1.35489,2.40949-2.76626,2.40949m2.76626-3.17726h-2.15654l.9281-1.94655c.65486.43357,1.11555,1.13588,1.22843,1.94655m-.2258-4.05117l1.6259,4.05117h-.62778c-.1197-1.11555-.75875-2.0798-1.6688-2.64435l.67067-1.40682Zm8.75726.87614c-.23937,0-.47423.02484-.70007.07002l-1.14036-3.61084c-.22583-.79262-.91005-.98682-1.24652-.97779h-.96201c-.21226,0-.38389.17163-.38389.38389s.17163.38389.38389.38389h.97328c.06323,0,.38616.02033.49908.42227l.31614,1.00491h-6.25067l-.34323-.85133h.84906c.21002,0,.38392-.17163.38392-.38389,0-.21229-.17391-.38389-.38392-.38389h-2.22655c-.21226,0-.38389.1716-.38389.38389,0,.21226.17163.38389.38389.38389h.551l.53519,1.33232-.97555,2.04366c-.36807-.1287-.76326-.20099-1.17651-.20099-1.96237,0-3.55891,1.59654-3.55891,3.55891s1.59654,3.56118,3.55891,3.56118c1.83364,0,3.34662-1.39331,3.53858-3.1773h1.19456c.09937,0,.19647-.03839.26873-.10837l4.5683-4.47347.29585.93941c-1.25104.55324-2.12721,1.80428-2.12721,3.25855,0,1.96237,1.59654,3.56118,3.55891,3.56118s3.55888-1.59881,3.55888-3.56118-1.59654-3.55891-3.55888-3.55891"/><path class="cls-4" d="m23.90019,24.91795c-1.5401,0-2.79113-1.25328-2.79113-2.79337,0-1.111.65034-2.07074,1.59203-2.52013l.83328,2.63532c.05193.16484.20323.2687.36583.2687.03839,0,.07677-.00451.11516-.01806.20323-.06323.31387-.27776.25064-.48099l-.83324-2.63756c.15354-.02484.30936-.03839.46745-.03839,1.54006,0,2.7911,1.25104,2.7911,2.7911s-1.25104,2.79337-2.7911,2.79337Zm-6.4223-3.46856l-1.78171-4.4396h6.18744l.02936.0971-4.43509,4.3425Zm-4.87542,3.46856c-1.53782,0-2.79113-1.25328-2.79113-2.79337s1.25331-2.7911,2.79113-2.7911c.29581,0,.57809.04514.84455.13097l-1.19005,2.49529c-.05648.1197-.04741.2597.02257.37035.07002.11064.19196.17838.32293.17838h2.76626c-.18741,1.35944-1.35489,2.40949-2.76626,2.40949Zm2.76626-3.17726h-2.15654l.9281-1.94655c.65486.43357,1.11555,1.13588,1.22843,1.94655Zm-.2258-4.05117l1.6259,4.05117h-.62778c-.1197-1.11555-.75875-2.0798-1.6688-2.64435l.67067-1.40682Zm8.75726.87614c-.23937,0-.47423.02484-.70007.07002l-1.14036-3.61084c-.22583-.79262-.91005-.98682-1.24652-.97779h-.96201c-.21226,0-.38389.17163-.38389.38389s.17163.38389.38389.38389h.97328c.06323,0,.38616.02033.49908.42227l.31614,1.00491h-6.25067l-.34323-.85133h.84906c.21002,0,.38392-.17163.38392-.38389,0-.21229-.17391-.38389-.38392-.38389h-2.22655c-.21226,0-.38389.1716-.38389.38389,0,.21226.17163.38389.38389.38389h.551l.53519,1.33232-.97555,2.04366c-.36807-.1287-.76326-.20099-1.17651-.20099-1.96237,0-3.55891,1.59654-3.55891,3.55891s1.59654,3.56118,3.55891,3.56118c1.83364,0,3.34662-1.39331,3.53858-3.1773h1.19456c.09937,0,.19647-.03839.26873-.10837l4.5683-4.47347.29585.93941c-1.25104.55324-2.12721,1.80428-2.12721,3.25855,0,1.96237,1.59654,3.56118,3.55891,3.56118s3.55888-1.59881,3.55888-3.56118-1.59654-3.55891-3.55888-3.55891Z"/></g></svg>