<?xml version="1.0" encoding="utf-8"?>
<!-- Generator: Adobe Illustrator 19.2.0, SVG Export Plug-In . SVG Version: 6.00 Build 0)  -->
<svg version="1.1" id="Layer_1" xmlns="http://www.w3.org/2000/svg" xmlns:xlink="http://www.w3.org/1999/xlink" x="0px" y="0px"
	 viewBox="0 0 41 41" enable-background="new 0 0 41 41" xml:space="preserve">
<circle fill="#C41230" cx="20.8" cy="20.9" r="20.3"/>
<g>
	<circle fill="#FFFFFF" cx="18.4" cy="9.8" r="2.3"/>
	<path fill="#FFFFFF" d="M26,18.6c0.3,0.5,0.9,0.7,1.4,0.4l0.2-0.1c0.5-0.3,0.7-0.9,0.4-1.4l-3-5.6c-0.3-0.5-0.9-0.7-1.4-0.4
		l-0.2,0.1c-0.5,0.3-0.7,0.9-0.4,1.4L26,18.6z"/>
	<path fill="#FFFFFF" d="M12.7,21.1c0.3,0.5,0.9,0.4,1.2,0.3l-0.8-1.7C13,19.8,12.3,20.4,12.7,21.1z"/>
	<path fill="#FFFFFF" d="M28.3,31.2c-0.2-0.7-3.4-8.9-3.4-8.9s0.8-1.2,0.1-3.3c-0.7-2.1-3-5.6-3-5.6s-0.6-1.2-2.1-0.8
		c-1.5,0.4-1.8,1.2-1.8,1.2l-1.4,3.7l-1.5,0.9l0.9,1.8l2.1-1.1l0.9-1.6l1.4,3.2l-2.3,4.4c0,0-0.1,0.1-0.2,0.3l-5.6-11.6l-1.2,0.6
		l6.2,12.8c-0.3,1.3-1,4.7-1,4.7s-0.6,1.9,0.7,2.2c1.3,0.4,1.7-0.8,2-1.7c0.1-0.2,0.2-0.6,0.3-1.2l1.4,2.8h1.5l-2.3-4.9
		c0.3-1.2,0.6-2.3,0.6-2.3l1.7-1.9l3.7,7.3c0.2,0.3,0.4,0.6,0.7,0.7c0.3,0.2,0.8,0.3,1.3,0C28.5,32.6,28.5,32,28.3,31.2z"/>
</g>
</svg>
