<?xml version="1.0" encoding="utf-8"?>
<!-- Generator: Adobe Illustrator 19.2.0, SVG Export Plug-In . SVG Version: 6.00 Build 0)  -->
<svg version="1.1" id="Layer_1" xmlns="http://www.w3.org/2000/svg" xmlns:xlink="http://www.w3.org/1999/xlink" x="0px" y="0px"
	 viewBox="0 0 41 41" style="enable-background:new 0 0 41 41;" xml:space="preserve">
<style type="text/css">
	.st0{fill:#C41230;}
	.st1{fill:#FFFFFF;}
</style>
<g>
	<circle class="st0" cx="20.5" cy="20.5" r="20.3"/>
	<g>
		<g>
			<path class="st1" d="M20.4,4.3c-1.4,0-2.4,1-2.4,2.2c0,0.6,0.3,1.1,0.7,1.5C12.1,9,7.1,14.6,7.1,21.3c0,7.4,6,13.4,13.4,13.4
				s13.4-6,13.4-13.4c0-6.9-5.1-12.5-11.7-13.3c0.4-0.4,0.6-0.9,0.6-1.5C22.8,5.3,21.7,4.3,20.4,4.3L20.4,4.3z M20.5,33
				c-6.4,0-11.7-5.2-11.7-11.7c0-6.4,5.2-11.7,11.7-11.7s11.7,5.2,11.7,11.7C32.2,27.8,26.9,33,20.5,33L20.5,33z"/>
		</g>
		<path class="st1" d="M28.3,21.3c0-0.2,0.2-0.4,0.4-0.4h1.6c-0.2-5.2-4.4-9.3-9.6-9.5v1.6c0,0.2-0.2,0.4-0.4,0.4S20,13.3,20,13.1
			v-1.6c-5.1,0.2-9.2,4.4-9.4,9.5h1.6c0.2,0,0.4,0.2,0.4,0.4c0,0.2-0.2,0.4-0.4,0.4h-1.6c0.2,5.1,4.3,9.2,9.4,9.5v-1.6
			c0-0.2,0.2-0.4,0.4-0.4s0.4,0.2,0.4,0.4v1.6c5.2-0.1,9.4-4.3,9.6-9.5h-1.6C28.5,21.7,28.3,21.5,28.3,21.3z M21.2,24.6L21.2,24.6
			l-0.9-3.5l-3.4,1.1l0,0l6.6-6.9L21.2,24.6z"/>
	</g>
</g>
</svg>
