<svg id="Layer_1" data-name="Layer 1" xmlns="http://www.w3.org/2000/svg" viewBox="0 0 40.5796 40.5796"><title>play-structure</title><circle cx="20.2898" cy="20.2898" r="20.2898" style="fill:#c41230"/><path d="M32.4395,8.4675a.998.998,0,0,0-.998.998v2.2518H24.3789V9.4655a.998.998,0,0,0-1.996,0v8.6471c-1.1058,1.4888-3.2585,4.3835-4.2361,5.6749-.1568.2071-.34.4536-.5442.7279-.7825,1.0523-1.8543,2.4935-2.897,3.687a4.854,4.854,0,0,1-1.263,1.1063l-.016-.0016H7.6795a.5374.5374,0,1,0,0,1.0748h.56v1.27a.4606.4606,0,0,0,.9212,0v-1.27h2.5765c.4124.0068.8745.012,1.3375.012.7044,0,1.4082-.0118,1.9294-.0474,1.802-.1229,2.7805-1.2526,4.1778-3.0983.724-.9563,2.09-2.7885,3.2-4.2815v8.1475a.998.998,0,0,0,1.996,0V21.0324h7.0627V31.1141a.998.998,0,0,0,1.996,0V9.4655A.998.998,0,0,0,32.4395,8.4675Zm-7.5489,11.49h-.5117V12.792h7.0627v7.1657H24.8906Z" style="fill:#fff"/><circle cx="15.8003" cy="18.9023" r="1.2557" transform="translate(-5.6455 6.777) rotate(-20.6246)" style="fill:#fff"/><path d="M11.6136,21.9761a11.2254,11.2254,0,0,0,1.4881.3952,4.2944,4.2944,0,0,0,1.3495.0543c.1945-.0236.4064-.0579.6235-.1056l.5072,3.2276c.3065-.4028.5934-.7873.8471-1.1275.19-.2551.3612-.4843.5074-.6768.3553-.468.8774-1.163,1.4432-1.9186l-.1569-.6888c.186-.1029.36-.2116.5158-.3171a4.2946,4.2946,0,0,0,.9814-.9279,11.2246,11.2246,0,0,0,.8618-1.2759,1.06,1.06,0,0,0,.1641-.8039.7012.7012,0,0,0-.2888-.3917.5533.5533,0,0,0-.3977-.0008l-.0017.0006a1.1536,1.1536,0,0,0-.5808.6969,3.3493,3.3493,0,0,1-.984,1.339,1.6936,1.6936,0,0,1-.3664.2232l-.2479.0929-.6426.2408a1.6849,1.6849,0,0,1-1.92.7194l-.9053.3393-.2431.0911v0a1.6936,1.6936,0,0,1-.4276.0741,3.3493,3.3493,0,0,1-1.6217-.3624,1.1536,1.1536,0,0,0-.8958-.1435l-.0017.0006a.5533.5533,0,0,0-.2992.262.7013.7013,0,0,0,.04.485A1.06,1.06,0,0,0,11.6136,21.9761Z" style="fill:#fff"/><line x1="25.5971" y1="12.3988" x2="25.5971" y2="20.1071" style="fill:none;stroke:#fff;stroke-miterlimit:10"/><line x1="27.8471" y1="12.3988" x2="27.8471" y2="20.1071" style="fill:none;stroke:#fff;stroke-miterlimit:10"/><line x1="30.0971" y1="12.3988" x2="30.0971" y2="20.1071" style="fill:none;stroke:#fff;stroke-miterlimit:10"/></svg>