<?xml version="1.0" encoding="UTF-8"?><svg id="Layer_2" xmlns="http://www.w3.org/2000/svg" viewBox="0 0 36 36"><defs><style>.cls-1{fill:#fff;}.cls-2{fill:#c41230;}</style></defs><g id="Icons"><path class="cls-2" d="m36,17.99999c0,9.94071-8.0593,18.00001-18.00001,18.00001S0,27.9407,0,17.99999,8.0593,0,17.99999,0s18.00001,8.0593,18.00001,17.99999"/><path class="cls-1" d="m27.5425,7.20406s-2.83117,10.63267-3.40328,12.12286c-.57437,1.49247-.15377,2.41056-3.17487,2.63894-3.0211.23066-7.68618.53595-10.24823.42061-2.56433-.11533-2.56433,1.7593-2.56433,2.41056,0,.64898-.45677,3.67008,2.52589,3.93919,2.98266.26684,8.94797-.38216,11.24321-1.37714,2.29522-.99498,2.52361-.99498,3.63391-4.85727,1.10803-3.86231,4.0907-15.22086,4.0907-15.22086l-2.103-.07689Z"/><path class="cls-1" d="m9.55698,14.29825c.16959.18543.3799.35956.62637.51559.90453.58341,2.27714.95652,3.81483.95652s2.91031-.37312,3.81481-.95652c.24648-.15603.45679-.33016.62638-.51559.16509-.18089.29398-.3731.37764-.57437.07915-.18317.11985-.37538.11985-.57211,0-1.44723-2.21155-2.62085-4.93869-2.62085s-4.93869,1.17361-4.93869,2.62085c0,.19673.0407.38894.11984.57211.08367.20127.21257.39348.37765.57437"/><path class="cls-1" d="m18.93778,14.29825c0,.38896-.16057.75755-.44775,1.08995-.43191.49749-1.14647.91131-2.0397,1.18267-.72136.22161-1.55803.34598-2.45125.34598s-1.7299-.12437-2.45351-.34598c-.89095-.27136-1.60779-.68518-2.0397-1.18267-.28492-.3324-.44773-.701-.44773-1.08995v2.17991c0,.03166.00226.06332.00452.09271.09271,1.40428,2.26583,2.52813,4.93643,2.52813,2.66834,0,4.84145-1.12386,4.93417-2.52813h.0068v-2.27262h-.00226Z"/></g></svg>