<?xml version="1.0" encoding="UTF-8"?><svg id="Layer_2" xmlns="http://www.w3.org/2000/svg" viewBox="0 0 36 35.99999"><defs><style>.cls-1{fill:#fff;}.cls-2{fill:#c41230;}</style></defs><g id="Icons"><path class="cls-2" d="m36,17.99999c0,9.94053-8.05947,18-18.00002,18S0,27.94053,0,17.99999,8.05947,0,17.99998,0s18.00002,8.05947,18.00002,17.99999"/><path class="cls-1" d="m13.6837,18.78313c-.16484.27098-.23035.59616-.16939.91683l-2.95594,1.96236c-.05196-.07001-.11292-.13098-.17842-.18517l2.08431-4.20474,1.21944,1.51072Zm5.90741-6.86262l.11516.14227-4.55703,6.14452c-.25967-.07226-.54194-.06549-.8084.03388l-1.3346-1.653,6.58487-4.66766Zm.70231.87617l.3884.48551,2.05268,2.34626c-.18517.28002-.23035.64584-.08356.97553.22807.51487.831.74746,1.34362.51938.51486-.22807.74745-.82875.51937-1.34361-.21904-.49455-.78359-.7294-1.28491-.54197l-1.77041-2.40271-2.12043-2.70757.3997-.29356c.22356-.16485.25516-.48551.06998-.69101l-2.01881-2.2356c.10613-.18066.12873-.40873.03615-.61648-.1513-.34099-.54877-.49455-.88975-.34325-.34095.15129-.49677.54874-.3455.88972.1513.34099.551.4968.89199.3455.00451-.00451.0113-.00677.01806-.00903l1.41137,2.00753c.04745.06774.03163.16033-.03611.20775l-.07453.05194-.03611.02709-.30939.21679.00227.00226-.04517.03161c-.20099.14452-.24161.42906-.0858.621l.69552.8694-6.58938,4.66993-.53519-.6639c.0745-.15582.14675-.34099.21453-.56907.15806-.53293.51937-.68422.6368-.72713s.58712-.25969.6368-.41777c.0316-.10387.02484-.22582-.05193-.30937-.28455-.30034-.85812.05871-1.16751.31614-.05417.04516-.10161.08806-.13773.1242-.67295.67068-1.28942,1.44749-2.05496,2.02108-.22807.16936-.79713.56455-.29581.81746.19871.10161.48778.06323.70227.02032.38616-.07678.76554-.32518,1.00942-.54874l.46517.57584-1.89008,4.76703c-.19647-.04065-.40649-.02259-.60293.06549-.50359.2213-.72939.80843-.50811,1.31201.22356.50132.81071.72939,1.31427.50583.41324-.18292.63908-.61197.5826-1.03876l3.14115-1.72752c.37035.35454.93262.47197,1.4317.25066.65713-.2913.95519-1.06134.66389-1.71847-.02936-.06774-.06547-.13097-.10385-.19194l4.41024-5.94581Z"/><path class="cls-1" d="m21.85833,12.29762c-.03163.01355-.06326.02936-.09259.04291l.12191.15807.00679.00678.00451.00677.42906.58487c1.65298-.67067,3.55212.08807,4.27927,1.72978.74069,1.67558-.01582,3.63568-1.6914,4.37636-1.67555.74294-3.63341-.01355-4.37637-1.68913-.48323-1.09296-.32969-2.30561.30036-3.22468l-.56906-.64811-.00679-.00903-.00679-.00904-.03611-.04291c-.91908,1.19006-1.17199,2.83403-.52165,4.30636.94843,2.1385,3.45051,3.10501,5.58902,2.15656,2.13848-.94618,3.10501-3.44824,2.15881-5.58675-.94843-2.14076-3.45051-3.10501-5.58899-2.15883"/><path class="cls-1" d="m12.14161,19.95762l.7768-.51486c-.1942-.21453-.40649-.40647-.6368-.57584l-.41552.84005c.0971.07677.18745.16259.27552.25065"/><path class="cls-1" d="m11.11661,25.31425c-1.67558.74069-3.63342-.01581-4.37637-1.68912-.74069-1.67558.0158-3.63568,1.69137-4.37636.60293-.26872,1.24428-.34099,1.85173-.24614l.3455-.8694c-.83555-.17389-1.72978-.09711-2.56982.27549-2.1385.94618-3.10501,3.44825-2.15883,5.58675.94843,2.14076,3.45049,3.10501,5.58901,2.15883,1.97591-.87618,2.95143-3.0779,2.33947-5.09673l-.82649.45615c.36356,1.52653-.3997,3.1434-1.88557,3.80052"/><polygon class="cls-1" points="29.78231 17.23446 13.85079 26.51561 29.78231 26.51561 29.78231 17.23446"/></g></svg>