<?xml version="1.0" encoding="utf-8"?>
<!-- Generator: Adobe Illustrator 19.2.0, SVG Export Plug-In . SVG Version: 6.00 Build 0)  -->
<svg version="1.1" id="Layer_1" xmlns="http://www.w3.org/2000/svg" xmlns:xlink="http://www.w3.org/1999/xlink" x="0px" y="0px"
	 viewBox="0 0 41 41" style="enable-background:new 0 0 41 41;" xml:space="preserve">
<style type="text/css">
	.st0{fill:#C41230;}
	.st1{fill:#FFFFFF;}
</style>
<g>
	<circle class="st0" cx="20.5" cy="20.5" r="20.3"/>
	<polygon class="st1" points="35,25.7 34.9,26.4 30.4,24.8 22,11.6 24.3,8.4 22.6,7.8 20.7,10.6 18.8,7.8 17,8.4 19.4,11.6 10.7,25 
		6.4,26.5 6.3,25.8 5.5,26.1 6.6,28.8 7,28.8 6.6,26.9 10.3,25.6 8.3,28.6 16.6,28.6 20.7,21 24.7,28.6 32.8,28.6 30.8,25.4 
		34.8,26.8 34.3,28.6 34.7,28.6 35.9,26 	"/>
</g>
</svg>
