<?xml version="1.0" encoding="UTF-8"?><svg id="Layer_2" xmlns="http://www.w3.org/2000/svg" viewBox="0 0 36 35.99997"><defs><style>.cls-1{fill:#fff;}.cls-2{fill:#c41230;}</style></defs><g id="Icons"><path class="cls-2" d="m36,17.99997c0,9.94055-8.05947,18-18,18S0,27.94053,0,17.99997,8.05945,0,18,0s18,8.05945,18,17.99997"/><path class="cls-1" d="m21.41629,20.43452l-1.63471,1.03157,1.22282-2.9807.41189,1.94912Zm-.28134,3.75852l-3.29514,2.00246,1.08124-2.63317,2.38492-1.50412-.17101,2.13484Zm-.35123,4.34692l-3.28223-.59946,3.50291-2.12931-.22067,2.72876Zm-1.80569-10.88568l-1.22464,2.9807-.43947-1.88293,1.66411-1.09776Zm-3.16456,7.71007l-.93781-3.73826,1.37542-1.64206.64359,2.74717-1.08121,2.63314Zm-3.74196-.39716l1.75973-2.09808.99847,3.97549-2.7582-1.87741Zm8.30403-10.86181l-4.46277,2.94576c-.08827.05884-.16734.12873-.23538.21147l-6.06251,7.22464c-.19859.2372-.28869.54794-.2464.85318.04228.30709.2133.58108.4689.75577l5.04749,3.43672c.11032.07354.228.12317.34938.15446.10297.05884.21515.1048.34017.12688l6.00553,1.09959c.06619.01103.13238.01838.19857.01838.23905,0,.47258-.07907.66567-.22617.24638-.18939.40083-.47255.42474-.78147l.75944-9.39994c.00917-.10665.00182-.21147-.02023-.3163l-1.10879-5.23136c-.00553-.02758-.01655-.05149-.02391-.07724l4.99783-12.18386c-.62333-.38801-1.26875-.73736-1.93807-1.04628l-5.08613,12.39716c-.02391.01473-.04966.02391-.07354.03861"/><path class="cls-1" d="m16.0334,12.47805c0-2.9108-2.35919-5.26999-5.27002-5.26999s-5.26999,2.35919-5.26999,5.26999,2.35919,5.27002,5.26999,5.27002,5.27002-2.35919,5.27002-5.27002"/></g></svg>