<?xml version="1.0" encoding="utf-8"?>
<!-- Generator: Adobe Illustrator 19.2.0, SVG Export Plug-In . SVG Version: 6.00 Build 0)  -->
<svg version="1.1" id="Layer_1" xmlns="http://www.w3.org/2000/svg" xmlns:xlink="http://www.w3.org/1999/xlink" x="0px" y="0px"
	 viewBox="0 0 41 41" style="enable-background:new 0 0 41 41;" xml:space="preserve">
<style type="text/css">
	.st0{fill:#C41230;}
	.st1{fill:#FFFFFF;}
</style>
<g>
	<circle class="st0" cx="20.6" cy="20.5" r="20.3"/>
	<g>
		<path class="st1" d="M10.5,30.7l21.4,0v-1.4c-0.1-0.2-0.7-1.8-1.6-3l-0.2-0.2h1.7V24c-0.9,0-6.5-0.1-7.4,0.2
			c-1,0.4-2.7,0.5-2.8,0.5l-13.9,0v1.3h2.3l-0.3,0.2c-1.9,1.5-2,2.6-2,2.6c0,0.5,0.2,0.9,0.5,1.1C9.1,30.8,10.5,30.7,10.5,30.7z
			 M12.3,27.4l0-0.1c0-1,1.2-1.2,1.8-1.2c0,0,0,0,0,0c0,0,5.1-0.1,7,0c1.9,0,4.1-0.9,4.1-0.9l0.2-0.1l0.1,1h1.5l0,0
			c0.5,0.5,1.4,1.5,1.7,3l0,0.2l-0.5,0c-0.4,0-6.6,0-10.9,0c-2.3,0-4.1,0-4.3,0C12.3,29.2,12.3,28.5,12.3,27.4z"/>
		<path class="st1" d="M11.8,20.1c0,0-2,0-2.6,0.8c-0.6,0.8-1.3,1.7-1.3,2.9h13.4c0,0,1.7,0,2.8-0.4C25.2,23,31,23,31.9,23
			c0-0.7,0.2-4.1-0.3-5.3c-0.5-1.5-0.6-2.1-0.6-2.5c0-0.4,0.1-6.4,0.1-6.4c0,0,0-0.1-0.1-0.1c-0.2-0.1-0.6-0.1-1.6,0.4
			c-1.9,1-5.6,0.7-5.8,0.7l-0.1,0l0-0.1c0,0,0.1-1.4-0.5-2c-0.2-0.2-0.3-0.2-0.5-0.2h-1.7c-0.1,0.4-0.3,2.1-0.7,4l1.6,0.2
			c0.2-0.2,0.4-0.4,0.7-0.4c0.5,0,0.9,0.4,0.9,0.9S22.9,13,22.4,13c-0.4,0-0.7-0.2-0.9-0.6l-1.7-0.2c-0.1,0.5-0.3,1-0.4,1.5l1.6,0.4
			c0.2-0.2,0.4-0.3,0.7-0.3c0.5,0,0.9,0.4,0.9,0.9s-0.4,0.9-0.9,0.9c-0.4,0-0.8-0.3-0.9-0.7l-1.6-0.4c-0.2,0.5-0.4,1-0.5,1.4
			l1.6,0.6c0.2-0.1,0.4-0.2,0.6-0.2c0.5,0,0.9,0.4,0.9,0.9s-0.4,0.9-0.9,0.9c-0.5,0-0.8-0.3-0.9-0.8l-1.7-0.6
			c-0.1,0.1-0.2,0.3-0.2,0.4c-0.1,0.1-0.2,0.2-0.3,0.4l1.2,1.1c0.1,0,0.2-0.1,0.3-0.1c0.5,0,0.9,0.4,0.9,0.9s-0.4,0.9-0.9,0.9
			s-0.9-0.4-0.9-0.9c0-0.1,0-0.2,0-0.2L17.2,18c-0.2,0.2-0.5,0.4-0.8,0.6l0.7,1.3c0,0,0,0,0,0c0.5,0,0.9,0.4,0.9,0.9
			s-0.4,0.9-0.9,0.9c-0.5,0-0.9-0.4-0.9-0.9c0-0.2,0-0.3,0.1-0.5L15.6,19c-0.3,0.1-0.6,0.3-1,0.4l0.4,1.3c0.4,0.1,0.7,0.5,0.7,0.9
			c0,0.5-0.4,0.9-0.9,0.9c-0.5,0-0.9-0.4-0.9-0.9c0-0.2,0.1-0.5,0.3-0.7l-0.4-1.3C12.7,20,11.8,20.1,11.8,20.1z"/>
	</g>
</g>
</svg>
