<svg xmlns="http://www.w3.org/2000/svg" viewBox="0 0 40.58 40.58"><defs><style>.a{fill:#c41230;}.b{fill:#fff;}</style></defs><title>snowshoeing</title><circle class="a" cx="20.29" cy="20.29" r="20.29"/><path class="b" d="M26.39,35.77a6.67,6.67,0,0,0,5-2.3,8.83,8.83,0,0,0,2.16-6.82C33.1,22.29,27.76,9.75,27,8V5.41a.61.61,0,0,0-1.21,0V7.87c-.34.8-6.12,14.23-6.56,18.78,0,.31-.05.62-.05.92a8.74,8.74,0,0,0,2.21,5.9,6.66,6.66,0,0,0,5,2.3h0Zm-3.3-2.38v-.31h1.34v1.09A5.51,5.51,0,0,1,23.09,33.39Zm2.69-21h1.34v1.37H25.78ZM27.12,15v1.37H25.78V15Zm1.21,1.37V15h.23c.18.45.35.91.53,1.37Zm-2.6-5.17.65-1.56c.19.44.4,1,.65,1.56ZM24.57,15v1.37h-.9L24.21,15Zm5,2.59.51,1.37H22.71c.17-.46.33-.92.51-1.37Zm.12,2.58v1.37h-1.3V20.15Zm-6.58,0h1.34v1.37H23.09Zm2.56,0h1.5v1.37h-1.5Zm1.5,2.59v1.37h-1.5V22.74Zm0,2.58v1.37h-1.5V25.32Zm1.22,1.37V25.32h1.3v1.37Zm0-2.58V22.74h1.3v1.37Zm2.51-1.37h.47c.15.47.28.93.4,1.37h-.87Zm-9,0v1.37H21c.12-.44.26-.9.41-1.37Zm1.21,0h1.34v1.37H23.09Zm1.34,2.58v1.37H23.09V25.32Zm3.17,2.59a.44.44,0,0,0,.32,0h4.42a7.89,7.89,0,0,1-.17,1.37H20.6a7.89,7.89,0,0,1-.17-1.37Zm-4.51,2.58h1.34v1.37H23.09Zm2.56,0h1.5v1.37h-1.5Zm2.72,0h1.3v1.37h-1.3Zm2.51,1.37V30.49h.92a7.17,7.17,0,0,1-.73,1.37Zm-9-1.37v1.42l-.11.08a7.43,7.43,0,0,1-.8-1.5Zm3.77,2.59h1.5V34.5a4.77,4.77,0,0,1-.76.06h0a4.4,4.4,0,0,1-.73-.06Zm2.72,1.08V33.08h1.3v.26s0,0,0,0A5.67,5.67,0,0,1,28.37,34.16Zm3.94-7.47H30.88V25.32h1.18C32.18,25.84,32.26,26.3,32.31,26.69Zm-11.6-1.38h1.17v1.37H20.46A12.12,12.12,0,0,1,20.71,25.31Z"/><path class="b" d="M14.19,4.81a6.67,6.67,0,0,0-5,2.3,8.83,8.83,0,0,0-2.16,6.82c.42,4.36,5.76,16.9,6.5,18.62v2.62a.61.61,0,0,0,1.21,0V32.71c.34-.8,6.12-14.23,6.56-18.78,0-.31.05-.62.05-.92a8.72,8.72,0,0,0-2.21-5.9,6.66,6.66,0,0,0-5-2.3h0Zm3.3,2.38V7.5H16.15V6.41A5.51,5.51,0,0,1,17.49,7.19Zm-2.69,21H13.46V26.81H14.8ZM13.46,25.6V24.23H14.8V25.6Zm-1.21-1.38V25.6H12c-.18-.45-.35-.91-.53-1.38Zm2.6,5.18L14.2,31c-.19-.44-.41-1-.65-1.56ZM16,25.6V24.23h.89c-.17.46-.35.92-.53,1.37ZM11,23l-.51-1.37h7.35c-.17.46-.33.92-.51,1.37Zm-.12-2.58V19.05h1.3v1.38Zm6.58,0H16.15V19.05h1.34Zm-2.56,0h-1.5V19.05h1.5Zm-1.5-2.59V16.47h1.5v1.37Zm0-2.58V13.88h1.5v1.38Zm-1.22-1.38v1.38h-1.3V13.88Zm0,2.59v1.37h-1.3V16.47ZM9.7,17.84H9.23c-.15-.47-.28-.93-.4-1.37H9.7Zm9,0V16.47h.87c-.12.44-.26.9-.41,1.37Zm-1.21,0H16.15V16.47h1.34Zm-1.34-2.58V13.88h1.34v1.38ZM13,12.67a.44.44,0,0,0-.32,0H8.24a7.89,7.89,0,0,1,.17-1.37H20a7.89,7.89,0,0,1,.17,1.37Zm4.51-2.58H16.15V8.71h1.34Zm-2.56,0h-1.5V8.71h1.5Zm-2.72,0h-1.3V8.71h1.3ZM9.7,8.71v1.38H8.78a7.57,7.57,0,0,1,.73-1.38Zm9,1.38V8.67l.11-.08a7.43,7.43,0,0,1,.8,1.5ZM14.93,7.5h-1.5V6.08A4.77,4.77,0,0,1,14.19,6h0a4.4,4.4,0,0,1,.73.06ZM12.21,6.42V7.5h-1.3V7.24s0,0,0,0A5.67,5.67,0,0,1,12.21,6.42ZM8.27,13.88H9.7v1.38H8.52A13.75,13.75,0,0,1,8.27,13.88Zm11.6,1.39H18.7V13.88h1.42A11.87,11.87,0,0,1,19.87,15.27Z"/></svg>