<?xml version="1.0" encoding="utf-8"?>
<!-- Generator: Adobe Illustrator 19.2.0, SVG Export Plug-In . SVG Version: 6.00 Build 0)  -->
<svg version="1.1" id="Layer_1" xmlns="http://www.w3.org/2000/svg" xmlns:xlink="http://www.w3.org/1999/xlink" x="0px" y="0px"
	 viewBox="0 0 41 41" style="enable-background:new 0 0 41 41;" xml:space="preserve">
<style type="text/css">
	.st0{fill:#C41230;}
	.st1{fill:#FFFFFF;}
</style>
<g>
	<circle class="st0" cx="20.5" cy="20.5" r="20.3"/>
	<g>
		<path class="st1" d="M19.4,8c1.1,0.9,1.4,1.3,1.5,1.4c0.1,0.1,1.6,1.7,3.3,1.9c0,0,0.1,0,0.1,0c-0.1-2.6-1.3-4.4-2-5.2
			c-0.6-0.2-1.3-0.3-1.9-0.3c-1.2,0-2.3,0.3-3.2,0.9C17.7,6.9,18.7,7.4,19.4,8z"/>
		<path class="st1" d="M24.9,11.3c1-0.1,1.1-0.8,1.1-0.9l0,0l0,0c0,0,0.1-0.3,0.2-0.8c-0.6-1.3-1.6-2.4-2.8-3
			C24.1,7.6,24.8,9.2,24.9,11.3z"/>
		<path class="st1" d="M26.1,13.8c0,0-0.2,0-0.7,0c-0.2,0-0.4,0-0.7,0c-0.1,0.5-0.2,0.9-0.3,1.3c0.2,0,0.3,0.1,0.5,0.1
			c0.4,0.1,0.6,0.4,0.8,0.7c0.4-0.6,0.8-1.3,1-2.1C26.3,13.8,26.1,13.8,26.1,13.8z"/>
		<path class="st1" d="M24.9,11.9c0,0.2,0,0.4,0,0.5c0,0.3-0.1,0.6-0.1,0.8c0.9,0,1.3,0,1.3,0c0,0,0.3,0,0.6,0c0-0.3,0.1-0.7,0.1-1
			c0-0.6-0.1-1.1-0.2-1.6C26.5,10.9,26.1,11.7,24.9,11.9z"/>
		<path class="st1" d="M24.6,15.8c-0.1-0.1-0.3-0.1-0.5-0.1c-0.4,1.1-1,1.9-1.5,2.5c1-0.4,1.9-1,2.6-1.8
			C25.1,16.2,24.9,15.9,24.6,15.8z"/>
		<path class="st1" d="M19.8,13c1.8,0.2,3.3,0.2,4.3,0.3c0-0.3,0.1-0.6,0.1-0.9c0-0.2,0-0.3,0-0.5c0,0-0.1,0-0.1,0
			c-1.9-0.2-3.6-2-3.6-2.1l0,0c0,0-0.3-0.4-1.4-1.3c-0.9-0.7-2.1-1.2-2.5-1.4c-1.3,1-2.2,2.5-2.5,4.2C14.9,11.8,16.9,12.7,19.8,13z"
			/>
		<path class="st1" d="M23.5,15.7c-0.6,0-1.1,0.1-1.1,0.1l0,0c-0.4,0.1-1.6,0.3-2,0.6c-0.6,0.5-1.9,0.8-2,0.9
			c-0.4,0.1-0.9,0.2-1.3,0.2c-0.2,0-0.3,0-0.5,0c1,0.7,2.3,1.2,3.7,1.2c0.4,0,0.7,0,1.1-0.1C22.2,17.9,23,17.1,23.5,15.7z"/>
		<path class="st1" d="M18.3,16.7c0,0,1.2-0.3,1.8-0.7c0.6-0.5,2-0.7,2.3-0.8c0.1,0,0.7-0.2,1.4-0.1c0.1-0.4,0.2-0.8,0.3-1.3
			c-1,0-2.5-0.1-4.3-0.3c-2.8-0.2-4.8-1.1-5.8-1.6c0,0.1,0,0.2,0,0.3c0,1.7,0.7,3.3,1.8,4.5C16.4,16.9,17.4,17,18.3,16.7z"/>
	</g>
	<g>
		<path class="st1" d="M29.9,21.8H10.7c-0.4,0-0.7-0.3-0.7-0.7v0c0-0.4,0.3-0.7,0.7-0.7h19.2c0.4,0,0.7,0.3,0.7,0.7v0
			C30.5,21.5,30.2,21.8,29.9,21.8z"/>
		<path class="st1" d="M29.9,20.4c0.3,0,0.6,0.3,0.6,0.6v0.2c0,0.3-0.3,0.6-0.6,0.6H10.6c-0.3,0-0.6-0.3-0.6-0.6V21
			c0-0.3,0.3-0.6,0.6-0.6H29.9"/>
	</g>
	<path class="st1" d="M27.6,22.5c-0.1,0.3-0.6,1.3-1.1,2.7l-1.6,2l-1.2-1.6l0.9-3c0,0,0-0.1,0-0.1H24l-0.9,3.1l-1.2,1.7l-1.3-1.6
		v-3.1c0,0,0,0,0,0H20c0,0,0,0,0,0v3.1l-1.2,1.6l-1.1-1.4l-1-3.4h-0.6c0,0,0,0.1,0,0.1l1,3.4l-1.2,1.5l-1.5-2
		c-0.6-1.6-1-2.7-1.2-3.1h-0.6c0,0,0,0.1,0,0.1c0,0.1,3.5,7.9,3.1,13c0,0.1,0.1,0.3,0.2,0.3c0,0,0.1,0,0.1,0c0.1,0,0.2,0,0.2-0.1
		l1.2-1.6l1.1,1.3c0.1,0.1,0.1,0.1,0.2,0.1c0,0,0,0,0,0c0.1,0,0.2,0,0.2-0.1l1.2-1.5l1.1,1.5c0.1,0.1,0.1,0.1,0.2,0.1c0,0,0,0,0,0
		c0.1,0,0.2,0,0.2-0.1l1.4-1.6l1.2,1.6c0.1,0.1,0.1,0.1,0.2,0.1c0,0,0.1,0,0.1,0c0.1,0,0.2-0.2,0.2-0.3c-0.3-4.6,3.2-12.6,3.3-12.7
		c0,0,0-0.1,0-0.1H27.6z M23.4,26.2l1.2,1.5l-1.2,1.5l-1.1-1.4L23.4,26.2z M21.9,28.2l1.1,1.4l-1.2,1.6l-1-1.4L21.9,28.2z
		 M20.3,26.2l1.2,1.5l-1.2,1.6l-1.2-1.5L20.3,26.2z M18.8,28.3l1.2,1.6l-1.1,1.5l-1.2-1.6L18.8,28.3z M17.4,26.5l1,1.3l-1.1,1.5
		l-1-1.3L17.4,26.5z M15,27.3l0.5,0.7l-0.2,0.3C15.2,28,15.1,27.6,15,27.3z M16,31c-0.1-0.6-0.3-1.3-0.5-2l0.4-0.5l1,1.3L16,31z
		 M16.3,34.7c0-0.6,0-1.2-0.1-1.9l0.8,1L16.3,34.7z M17.4,33.3l-1.2-1.5l1.1-1.5l1.2,1.6L17.4,33.3z M18.7,34.9l-1-1.2l1.1-1.4
		l1,1.3L18.7,34.9z M19.2,31.8l1.1-1.5l1,1.3l-1.2,1.5L19.2,31.8z M21.6,34.9l-1-1.3l1.2-1.5l1.1,1.4L21.6,34.9z M24.3,34.5
		l-0.7-0.9l0.9-1C24.3,33.2,24.3,33.9,24.3,34.5z M23.2,33.1l-1.1-1.4l1.2-1.6l1.2,1.5L23.2,33.1z M24.8,30.9l-1-1.3l1.2-1.4
		l0.4,0.6C25.1,29.4,24.9,30.2,24.8,30.9z M25.5,28l-0.3-0.3l0.6-0.8C25.8,27.2,25.6,27.6,25.5,28z"/>
</g>
</svg>
