<?xml version="1.0" encoding="utf-8"?>
<!-- Generator: Adobe Illustrator 19.2.0, SVG Export Plug-In . SVG Version: 6.00 Build 0)  -->
<svg version="1.1" id="Layer_1" xmlns="http://www.w3.org/2000/svg" xmlns:xlink="http://www.w3.org/1999/xlink" x="0px" y="0px"
	 viewBox="0 0 41 41" style="enable-background:new 0 0 41 41;" xml:space="preserve">
<style type="text/css">
	.st0{fill:#C41230;}
	.st1{fill:#FFFFFF;}
</style>
<g>
	<circle class="st0" cx="20.5" cy="20.5" r="20.3"/>
	<g>
		<path class="st1" d="M34,26.7c-0.4-0.4-0.9-0.4-1.3,0c-1.1,1.1-2.2,1.6-3.3,1.6c-1.7-0.1-2.9-1.5-2.9-1.5
			c-0.2-0.2-0.4-0.3-0.7-0.3c-0.3,0-0.5,0.1-0.7,0.3c-1.1,1.1-2.2,1.7-3.3,1.7c-1.9,0-3.4-1.7-3.4-1.7c-0.2-0.2-0.4-0.3-0.7-0.3
			c-0.3,0-0.5,0.1-0.7,0.3c-1.3,1.3-2.5,1.9-3.6,1.8c-1.6-0.1-2.6-1.6-2.7-1.7c-0.3-0.4-0.8-0.5-1.3-0.3c-0.4,0.3-0.5,0.8-0.3,1.3
			c0.1,0.1,1.5,2.2,4,2.5c0.1,0,0.3,0,0.4,0c1.4,0,2.7-0.6,4-1.8c0.8,0.7,2.3,1.6,4.1,1.6c1.4,0,2.8-0.5,4-1.6
			c0.7,0.6,1.9,1.4,3.5,1.5c1.6,0.1,3.2-0.6,4.7-2.1C34.3,27.6,34.3,27.1,34,26.7z"/>
		
			<ellipse transform="matrix(0.9984 -5.741768e-02 5.741768e-02 0.9984 -0.8392 1.4971)" class="st1" cx="25.6" cy="15.4" rx="3" ry="3"/>
		<path class="st1" d="M9.1,22.2c0.1,0,0.1,0,0.2,0c0.9,0,1.8-0.5,2.9-1.6c0.3-0.3,0.7-0.5,1.2-0.5c0,0,0,0,0,0
			c0.5,0,0.9,0.2,1.2,0.5c0.1,0.1,1.3,1.4,2.9,1.4l0,0c0.9,0,1.8-0.5,2.7-1.5c0.3-0.3,0.8-0.5,1.2-0.5c0,0,0,0,0.1,0
			c0.5,0,0.9,0.2,1.2,0.6c0.1,0.1,1,1.2,2.3,1.2c0,0,0.1,0,0.1,0c0.1,0,0.2,0,0.3,0l-6.3-9.8l5.5-1.4c0,0,1.4-0.3,1.1-1.8
			s-2-1.2-2-1.2s-6,1.3-8,1.8C13.9,10,15,12,15,12l2.4,3.8l-9.5,6C8.3,22,8.7,22.2,9.1,22.2z"/>
		<path class="st1" d="M13.3,23.6c0.8,0.7,2.3,1.6,4.1,1.6c1.4,0,2.8-0.5,4-1.6c0.7,0.6,1.9,1.4,3.5,1.5c1.6,0.1,3.2-0.6,4.7-2.1
			c0.4-0.4,0.4-0.9,0-1.3c-0.4-0.4-0.9-0.4-1.3,0c-1.1,1.1-2.2,1.6-3.3,1.6c-1.7-0.1-2.9-1.5-2.9-1.5c-0.2-0.2-0.4-0.3-0.7-0.3
			c-0.3,0-0.5,0.1-0.7,0.3c-1.1,1.1-2.2,1.7-3.3,1.7c-1.9,0-3.4-1.7-3.4-1.7c-0.2-0.2-0.4-0.3-0.7-0.3c-0.3,0-0.5,0.1-0.7,0.3
			c-1.3,1.3-2.5,1.9-3.6,1.8c-1.6-0.1-2.6-1.6-2.7-1.7c-0.3-0.4-0.8-0.5-1.3-0.3c-0.4,0.3-0.5,0.8-0.3,1.3c0.1,0.1,1.5,2.2,4,2.5
			c0.1,0,0.3,0,0.4,0C10.6,25.3,12,24.8,13.3,23.6z"/>
	</g>
</g>
</svg>
