<?xml version="1.0" encoding="utf-8"?>
<!-- Generator: Adobe Illustrator 19.2.0, SVG Export Plug-In . SVG Version: 6.00 Build 0)  -->
<svg version="1.1" id="Layer_1" xmlns="http://www.w3.org/2000/svg" xmlns:xlink="http://www.w3.org/1999/xlink" x="0px" y="0px"
	 viewBox="0 0 41 41" style="enable-background:new 0 0 41 41;" xml:space="preserve">
<style type="text/css">
	.st0{fill:#C41230;}
	.st1{fill:#FFFFFF;}
</style>
<g>
	<circle class="st0" cx="20.5" cy="20.5" r="20.3"/>
	<g>
		<circle class="st1" cx="20.5" cy="11.3" r="1.9"/>
		<circle class="st1" cx="14.7" cy="12.2" r="1.9"/>
		<circle class="st1" cx="26" cy="12.2" r="1.9"/>
		<path class="st1" d="M35.5,14.5c0-0.3-0.1-0.5-0.1-0.5c0,0-0.2-0.1-0.4-0.1c0,0,0,0,0,0c-0.3,0-0.5,0.2-0.8,0.5
			c-0.5,0.6-1.1,0.8-1.5,1c-0.2,0.1-0.5,0.1-0.7,0.1l-0.5,0c-0.1,0.2-0.2,0.4-0.4,0.5c-0.2,0.2-0.5,0.3-0.8,0.2
			c-0.8-0.1-2-1.1-2-1.1l-0.1-0.1l0.5-0.5l0.1,0.1c0,0,0.2,0.1,0.9,0.6c0,0,0.1,0.1,0.1,0.1c0.2,0.1,0.4,0.3,0.6,0.2
			c0.2,0,0.4-0.2,0.5-0.4c0.1-0.2,0-0.5-0.1-0.7c-0.1-0.1-0.3-0.3-0.4-0.4c-0.5-0.4-1.1-0.7-1.3-0.7c-0.1,0-0.2-0.1-0.4-0.1l-0.3,0
			c-0.4,1-1.3,1.6-2.4,1.6c-0.3,0-0.6-0.1-0.9-0.2l-1.2,0.9l0.5,0.3l0,0.1l1,5.3l0,9.3c0,0.8,0.2,0.9,0.2,0.9l0.1,0l0,0.1
			c0,0,0,0,0,0c0,0,0.2,0.1,0.7,0.1c0.7,0,0.7-0.9,0.7-0.9v-8.7l1.2,0l0,0.1c0,0.1,2.1,7.9,2.4,8.8c0.2,0.8,0.5,0.8,0.5,0.8
			c0,0,0.7,0.1,1-0.3c0.3-0.4,0-1.3-0.1-1.6l-2.3-8.8l-0.3-4.3l0.2,0.1c0.8,0.4,1.9,0.3,2.7,0.1c0.5-0.1,0.9-0.3,1.3-0.6
			c0.3-0.2,0.8-0.5,1.3-0.9C35.3,15,35.4,14.8,35.5,14.5z"/>
		<path class="st1" d="M15.6,14.7c-0.3,0.1-0.6,0.2-0.9,0.2c-1,0-2-0.6-2.4-1.6l-0.3,0c-0.1,0-0.2,0-0.4,0.1
			c-0.2,0.1-0.8,0.3-1.3,0.7c-0.1,0.1-0.3,0.3-0.4,0.4c-0.2,0.2-0.2,0.4-0.2,0.7c0.1,0.2,0.2,0.4,0.5,0.4c0.2,0,0.5-0.1,0.6-0.2
			c0.1,0,0.1-0.1,0.1-0.1c0.8-0.4,0.9-0.6,0.9-0.6l0.1-0.1l0.5,0.5L12.4,15c-0.1,0-1.3,1-2,1.1c-0.3,0.1-0.6,0-0.8-0.2
			c-0.2-0.1-0.3-0.3-0.4-0.5l-0.5,0c-0.2,0-0.5,0-0.7-0.1c-0.4-0.1-0.9-0.4-1.5-1c-0.3-0.3-0.6-0.5-0.8-0.5c0,0,0,0,0,0
			c-0.2,0-0.4,0.1-0.4,0.1c0,0-0.2,0.2-0.1,0.5c0,0.3,0.2,0.5,0.5,0.7c0.5,0.4,1,0.7,1.3,0.9c0.4,0.3,0.9,0.4,1.3,0.6
			c0.8,0.2,1.9,0.3,2.7-0.1l0.2-0.1l-0.3,4.2l-2.3,8.8c0,0-0.4,1.1-0.1,1.6c0.3,0.5,0.9,0.3,1,0.3c0,0,0.3,0,0.5-0.8
			c0.2-0.9,2.3-8.7,2.4-8.8l0-0.1l1.2,0v8.8c0,0,0.1,0.9,0.7,0.9c0,0,0,0,0,0c0.6,0,0.7-0.1,0.7-0.1l0-0.1l0.1,0
			c0,0,0.2-0.1,0.2-0.9v-9.3l1-5.4l0.5-0.3L15.6,14.7z"/>
		<path class="st1" d="M23.6,13.4H22c-0.5,0.3-1,0.5-1.6,0.5s-1.1-0.2-1.6-0.5H17c-0.2,0.4-0.5,0.7-0.8,0.9l1.5,1.1v15.1
			c0,0-0.1,0.9,0.6,1c0.7,0.1,0.9,0,0.9,0c0,0,0.4-0.1,0.4-0.8c0-0.8,0-8.2,0-8.3l0-0.1H21l0,0.1c0,0.1,0,7.6,0,8.3
			c0,0.7,0.3,0.8,0.4,0.8c0,0,0.2,0.1,0.9,0c0.6-0.1,0.6-0.9,0.6-1l0-15.1l1.5-1.1C24.1,14.1,23.8,13.7,23.6,13.4z"/>
	</g>
</g>
</svg>
