<?xml version="1.0" encoding="utf-8"?>
<!-- Generator: Adobe Illustrator 19.2.0, SVG Export Plug-In . SVG Version: 6.00 Build 0)  -->
<svg version="1.1" id="Layer_1" xmlns="http://www.w3.org/2000/svg" xmlns:xlink="http://www.w3.org/1999/xlink" x="0px" y="0px"
	 viewBox="0 0 41 41" style="enable-background:new 0 0 41 41;" xml:space="preserve">
<style type="text/css">
	.st0{fill:#C41230;}
	.st1{fill:#FFFFFF;}
</style>
<g>
	<circle class="st0" cx="20.5" cy="20.5" r="20.3"/>
	<g>
		<polygon class="st0" points="19.3,31.1 19.2,30.9 19.4,30.8 19.5,31 		"/>
		<polygon class="st0" points="19.5,31 19.4,30.8 19.6,30.6 19.7,30.8 		"/>
		<path class="st0" d="M18.3,31.8l-0.1-0.2c0.1,0,0.1-0.1,0.2-0.1l0.1,0.2C18.4,31.7,18.3,31.8,18.3,31.8z"/>
		<path class="st0" d="M19.1,31.3L19,31.1c0.1,0,0.1-0.1,0.2-0.1l0.1,0.2C19.3,31.2,19.2,31.2,19.1,31.3z"/>
		<path class="st0" d="M18.9,31.4l-0.1-0.2c0.1,0,0.1-0.1,0.2-0.1l0.1,0.2C19,31.3,19,31.4,18.9,31.4z"/>
		<polygon class="st0" points="17.7,31 17.7,30.8 17.7,30.7 17.7,30.7 17.8,31 		"/>
		<polygon class="st0" points="15.1,31.7 15,31.6 15.1,31.4 15.2,31.4 		"/>
		<polygon class="st0" points="14.9,31.6 14.8,31.5 14.8,31.3 15,31.4 		"/>
		<polygon class="st0" points="14.7,31.5 14.5,31.4 14.6,31.2 14.8,31.3 		"/>
		<path class="st0" d="M17,32.1c-0.1,0-0.1,0-0.2,0l0-0.2c0.1,0,0.1,0,0.2,0L17,32.1z"/>
		<polygon class="st0" points="16.8,32.1 16.7,32.1 16.7,31.8 16.8,31.8 		"/>
		
			<rect x="15.9" y="31.8" transform="matrix(0.2275 -0.9738 0.9738 0.2275 -18.568 40.2046)" class="st0" width="0.2" height="0.1"/>
		<polygon class="st0" points="16.6,32 16.6,32 16.6,31.8 16.7,31.8 		"/>
		<polygon class="st0" points="15.9,31.9 15.9,31.8 15.9,31.9 15.9,31.8 15.9,31.9 15.8,31.9 15.8,31.6 15.9,31.6 15.9,31.8 		"/>
		
			<rect x="16.3" y="31.8" transform="matrix(0.1719 -0.9851 0.9851 0.1719 -17.8082 42.5771)" class="st0" width="0.2" height="0.1"/>
		<polygon class="st0" points="15.7,31.8 15.6,31.8 15.7,31.6 15.8,31.6 		"/>
		<polygon class="st0" points="15.5,31.8 15.4,31.8 15.5,31.5 15.6,31.5 		"/>
		<polygon class="st0" points="17.3,32.1 17.2,32.1 17.2,31.8 17.3,31.8 		"/>
		<polygon class="st0" points="15.3,31.7 15.2,31.7 15.3,31.5 15.4,31.5 		"/>
		<path class="st0" d="M17.2,32.1c0,0-0.1,0-0.1,0l0-0.2c0,0,0.1,0,0.1,0L17.2,32.1z"/>
		<polygon class="st0" points="16.3,32 16.2,32 16.2,31.7 16.3,31.7 		"/>
		<path class="st0" d="M17.8,30.9l-0.1-0.2c0,0,0.1,0,0.1,0l0.1,0.2C17.9,30.9,17.9,30.9,17.8,30.9z"/>
		<path class="st0" d="M18,30.9l-0.1-0.2c0,0,0.1,0,0.1-0.1l0.1,0.2C18.1,30.9,18,30.9,18,30.9z"/>
		<g>
			<path class="st1" d="M17.2,30.9c0.1,0,0.1,0,0.2,0C17.3,30.9,17.3,30.9,17.2,30.9z"/>
			<path class="st0" d="M17.4,31c-0.1,0-0.1,0-0.2,0l0-0.2c0,0,0.1,0,0.1,0V31z"/>
		</g>
		<g>
			<path class="st1" d="M17.5,30.9c0,0-0.1,0-0.1,0C17.4,30.9,17.5,30.9,17.5,30.9z"/>
			<path class="st0" d="M17.4,31v-0.2c0,0,0.1,0,0.1,0l0,0.2C17.5,31,17.4,31,17.4,31z"/>
		</g>
		<g>
			<path class="st1" d="M17.7,30.9C17.7,30.9,17.7,30.9,17.7,30.9C17.7,30.9,17.7,30.9,17.7,30.9C17.7,30.9,17.7,30.9,17.7,30.9z"/>
			<polygon class="st0" points="17.7,31 17.7,30.7 18.7,30.5 17.7,31 17.7,31 			"/>
		</g>
		<g>
			<path class="st1" d="M17.5,30.9C17.6,30.9,17.6,30.9,17.5,30.9C17.6,30.9,17.6,30.9,17.5,30.9z"/>
			<path class="st0" d="M17.6,31l0-0.2c0,0,0.1,0,0.1,0l0,0.2C17.6,31,17.6,31,17.6,31z"/>
		</g>
		<g>
			<path class="st1" d="M16.6,30.8c0.1,0,0.1,0,0.2,0C16.7,30.8,16.6,30.8,16.6,30.8z"/>
			<path class="st0" d="M16.8,30.9c-0.1,0-0.1,0-0.2,0l0.1-0.2l0.2,0l0,0L16.8,30.9z"/>
		</g>
		<g>
			<path class="st1" d="M17,30.9c0.1,0,0.1,0,0.2,0C17.1,30.9,17.1,30.9,17,30.9z"/>
			<path class="st0" d="M17.2,31c-0.1,0-0.1,0-0.2,0l0-0.2c0.1,0,0.1,0,0.2,0L17.2,31z"/>
		</g>
		<g>
			<path class="st1" d="M16.8,30.8c0.1,0,0.1,0,0.2,0C16.9,30.8,16.9,30.8,16.8,30.8z"/>
			<path class="st0" d="M17,31c-0.1,0-0.1,0-0.2,0l0-0.2l0,0l0,0c0,0,0,0,0,0c0.1,0,0.1,0,0.2,0L17,31z"/>
		</g>
		<g>
			<path class="st1" d="M17,30.9C17,30.9,17,30.9,17,30.9C17,30.9,17,30.9,17,30.9z"/>
			<path class="st0" d="M17,31l0-0.1L17,31z M17,30.9v-0.1l0.1,0L17,30.9z"/>
		</g>
		<g>
			<polygon class="st1" points="26.4,14.8 23.6,16.6 25.6,17.3 28.3,15.4 			"/>
			<path class="st1" d="M16.4,29.5c0.1,0.2,0.1,0.4,0.2,0.5s0.1,0.2,0.1,0.2c0.3,0.1,0.5,0.1,0.7,0.1c0.2,0,0.4-0.1,0.9-0.4
				c0.6-0.4,4-3,5.6-4.2c0.6-0.4,1-0.8,1.2-0.9c0.6-0.5,6.8-5.7,8.9-7.5l-1.4-0.4c-0.3,0.3-1.2,1.1-2.5,2.1l0.2,0.1l0,1l-1.3,0.8
				l-0.9-0.3c-1.1,0.9-2.1,1.8-3.1,2.6l0.1,0l0,0.8l-1.2,1l-0.9-0.3c-0.3,0.3-0.7,0.5-1,0.8c-1.2,0.9-2.4,1.8-3.5,2.6v1.2l-0.1,0
				c-0.5,0.3-1,0.2-1,0.2l-0.1,0v-0.6C17,29.1,16.7,29.4,16.4,29.5z"/>
			<path class="st1" d="M18.7,27c1.3-1,2.5-1.9,3.6-2.7l-3.2-1.1c-0.1,0.1-0.3,0.2-0.4,0.3V27z"/>
			<path class="st1" d="M29,15.6l-2.6,2l3,1c1.2-1,2-1.7,2.4-2.1L29,15.6z"/>
			<path class="st1" d="M24.3,22.8c0.7-0.5,1.3-1.1,1.9-1.5c0.4-0.4,0.8-0.7,1.2-1l-3.2-1.1L21,21.7L24.3,22.8z"/>
			<path class="st1" d="M17.5,27.8v-3.2c-0.5,0.6-0.8,1.1-1,1.7c-0.2,0.8-0.3,1.7-0.3,2.5C16.6,28.5,17,28.2,17.5,27.8z"/>
			<g>
				<polygon class="st1" points="18.1,30.7 18.1,30.7 18.1,30.7 				"/>
				<path class="st1" d="M31.4,20.9l4.3-3.8v-0.4l-0.4,0.4c-1.1,1-3.7,3.1-5.8,4.9c-2.3,2-3.6,3-3.9,3.2c-0.2,0.2-0.8,0.6-1.5,1.2
					c-0.7,0.5-1.5,1.2-2.4,1.8c-1.7,1.3-2.6,2-3,2.2c-0.1,0-0.1,0.1-0.2,0.1l0,0c-0.1,0-0.1,0.1-0.1,0.1l-0.1,0c0,0-0.1,0-0.1,0.1
					l0,0c0,0-0.1,0-0.1,0.1c-0.1,0-0.1,0-0.1,0l-0.2,0c0,0-0.1,0-0.1,0l0,0c0,0-0.1,0-0.1,0l0,0c0,0-0.1,0-0.1,0l0,0
					c-0.1,0-0.1,0-0.2,0l0,0c-0.1,0-0.1,0-0.2,0l-0.2-0.1c-0.3-0.1-0.6-0.4-0.8-1c0,0,0-0.1,0-0.1c0,0,0-0.1,0-0.1
					c0-0.1,0-0.2-0.1-0.3c0,0,0-0.1,0-0.1c-0.1-1,0-2.1,0.3-3.2c0.1-0.4,0.3-0.9,0.6-1.3l0,0c0.3-0.5,0.7-0.9,1.3-1.4L15,22.4
					c-0.2,0.1-0.6,0.5-1.2,1.1c-0.2,0.2-0.3,0.3-0.4,0.5c-0.8,1-1.3,1.9-1.4,2.9c-0.2,1.2,0.1,2.4,0.9,3.6c0,0,0,0,0,0.1l2.9,1.1
					l1,0.2l0,0.1h0l0-0.1c0.1,0,0.1,0,0.2,0c0.1,0,0.1,0,0.1,0l0.1,0c0,0,0.1,0,0.1,0c0.2,0,0.4-0.1,0.7-0.3c0.1,0,0.1-0.1,0.2-0.1
					c0.1-0.1,0.3-0.2,0.4-0.3c0.1,0,0.1-0.1,0.2-0.1c0.1,0,0.1-0.1,0.2-0.1l1-0.7c0.1-0.1,0.2-0.1,0.2-0.2c0.8-0.6,3.6-2.8,6.4-5.1
					c0.2-0.2,0.5-0.4,0.7-0.6l2.1-1.8c0.3-0.3,0.6-0.5,0.9-0.8C30.8,21.5,31.1,21.2,31.4,20.9z"/>
				<polygon class="st1" points="17.2,30.9 17.2,30.9 17.2,30.9 				"/>
				<polygon class="st1" points="17.8,30.8 17.8,30.8 17.8,30.8 				"/>
			</g>
			<path class="st1" d="M11.6,21.3C11.6,21.3,11.6,21.3,11.6,21.3c0,0-1.3,0.9-2.2,2.2c-1.3,1.7-1.5,3.5-0.6,5.2c0,0,0,0,0,0.1
				l2.8,1.2c-0.5-1-0.7-2.1-0.5-3.2v0c0.4-2.2,2-3.9,2.9-4.7L11.6,21.3z"/>
			<path class="st1" d="M10.6,21l-2.6-0.8c-0.1,0.1-0.3,0.2-0.4,0.3c-0.1,0-0.1,0.1-0.2,0.2c-0.1,0.1-0.1,0.1-0.2,0.2
				C7.2,20.8,7.1,20.9,7,21c-0.1,0.1-0.2,0.2-0.3,0.3c-0.1,0.1-0.1,0.1-0.2,0.2c-0.4,0.5-0.8,0.9-0.9,1.2c-0.4,0.6-0.6,1.1-0.7,1.7
				c0,0.2-0.1,0.4,0,0.6l0,0.1c0,0.1,0,0.2,0,0.3c0,0.2,0.1,0.4,0.1,0.5c0,0.1,0.1,0.2,0.1,0.3c0.2,0.3,0.4,0.7,0.7,1
				c0.1,0.1,0.2,0.1,0.2,0.2c0,0,0.1,0.1,0.1,0.1c0.1,0.1,0.2,0.1,0.2,0.2c0.1,0.1,0.2,0.1,0.2,0.2C6.9,27.9,7,27.9,7,28
				c0,0,0.1,0,0.1,0.1c0.2,0.1,0.3,0.2,0.5,0.3c0,0,0,0,0,0c-0.6-1.7-0.2-3.6,1-5.3C9.4,22.1,10.1,21.4,10.6,21z"/>
			<polygon class="st1" points="22.1,17.6 22.1,17.7 29,20 29.7,19.6 29.7,19.5 22.8,17.1 			"/>
			<polygon class="st1" points="35.6,15.7 27.8,13.5 27,14.1 27,14.2 34.6,16.7 35.6,15.9 			"/>
			<path class="st1" d="M30,8.1c-0.4-1.3-2.2-1.8-2.4-1.9c-0.2,0-4-1.2-10,1.8c-3.5,1.8-5.5,4.4-6.6,6.3c-1,1.7-1.4,3.1-1.5,3.6
				l0,0.1l0.8,0.2l0-0.1c0.3-1.1,2-6.5,7.7-9.4C23.7,5.9,27.3,7,27.4,7c0.4,0.1,1.6,0.6,1.8,1.3c0.1,0.4,0,0.8-0.5,1.3
				c-0.6,0.7-1.5,1.2-2.5,1.3c-0.4,0-0.8,0.1-1.2,0.1c-1.6,0.1-3.6,0.3-5,1c-0.1,0.1-0.7,0.4-1.2,1.1c-0.5,0.7-0.9,2-0.4,4.1
				c0.2,0.8,0.3,1.4,0.4,2c0,0.1,0,0.3,0.1,0.4c0.1,0.7,0.1,1,0.1,1.1c0,0,0,0.1,0,0.1l0,0.1l0.8,0.2l0-0.1c0.1-0.3,0-0.9-0.1-1.8
				c0-0.1,0-0.2-0.1-0.4c-0.1-0.5-0.2-1.1-0.4-1.8c-0.8-3.3,1.1-4.2,1.2-4.3c1.2-0.6,3.2-0.8,4.7-0.9c0.4,0,0.9-0.1,1.2-0.1
				c1.2-0.1,2.3-0.7,3-1.6C30,9.4,30.2,8.7,30,8.1z"/>
			<polygon class="st1" points="19.3,21.4 9.6,18.6 8.5,19.3 8.5,19.5 18.2,22.7 19.2,22.1 			"/>
			<polygon class="st1" points="20,22.1 19.9,22.5 19.7,22.7 24,24.1 24.6,23.7 			"/>
			<path class="st1" d="M18.5,20.4c0-0.1,0-0.2,0-0.4L18,20.3L18.5,20.4z"/>
			<path class="st1" d="M21.4,18.2l0-0.2l-1.3,0.9l0,0.1c0.2,1,0.2,1.6,0.1,2l-0.1,0.3l0.1,0l3.2-2.5L21.4,18.2z"/>
		</g>
	</g>
</g>
</svg>
