<?xml version="1.0" encoding="utf-8"?>
<!-- Generator: Adobe Illustrator 19.2.0, SVG Export Plug-In . SVG Version: 6.00 Build 0)  -->
<svg version="1.1" id="Layer_1" xmlns="http://www.w3.org/2000/svg" xmlns:xlink="http://www.w3.org/1999/xlink" x="0px" y="0px"
	 viewBox="0 0 41 41" style="enable-background:new 0 0 41 41;" xml:space="preserve">
<style type="text/css">
	.st0{fill:#C41230;}
	.st1{fill:#FFFFFF;stroke:#C41230;stroke-width:0.25;stroke-miterlimit:10;}
	.st2{fill:#FFFFFF;}
</style>
<g>
	<circle class="st0" cx="20.5" cy="20.5" r="20.3"/>
	<g>
		<g>
			<path class="st1" d="M22,20.7c0,0.6,0.1,1.1,0.4,1.4c0.4,0.4,0.8,0.6,1.1,0.6c0-0.6-0.1-1.1-0.4-1.4C22.8,20.9,22.3,20.8,22,20.7
				z"/>
			<g>
				<path class="st2" d="M23.3,19H23v0.6h-2.1l1,4.8h-2.4l0.8-4.8h-2.1V19h-0.5c-0.7,0-1.2,0.5-1.2,1.2v6.2c0,0.7,0.6,1.2,1.2,1.2
					h5.6c0.7,0,1.2-0.5,1.2-1.2v-6.2C24.5,19.5,23.9,19,23.3,19z M17.3,23.1c-0.1-0.8,0.1-1.5,0.5-2c0.6-0.8,1.6-0.9,1.7-0.9l0.2,0
					l0,0.2c0.1,0.8-0.1,1.5-0.5,2.1c-0.6,0.8-1.6,0.8-1.6,0.9l-0.2,0L17.3,23.1z M17.4,26c3.1-2.6,6.1,0,6.1,0
					C20.5,28.5,17.4,26,17.4,26z M23.9,23.1l0,0.2l-0.2,0c0,0-1-0.1-1.6-0.9c-0.4-0.5-0.6-1.2-0.5-2.1l0-0.2l0.2,0
					c0,0,1,0.1,1.7,0.9C23.9,21.6,24,22.3,23.9,23.1z"/>
			</g>
			<path class="st1" d="M18.8,22.1c0.3-0.4,0.4-0.8,0.4-1.4c-0.3,0.1-0.8,0.2-1.1,0.6c-0.3,0.4-0.4,0.8-0.4,1.4
				C17.9,22.7,18.4,22.6,18.8,22.1z"/>
		</g>
		<g>
			<polygon class="st1" points="21.4,30.9 22.1,29.8 20.7,29.8 			"/>
			<path class="st2" d="M23.3,28.2h-5.6c-0.7,0-1.2,0.6-1.2,1.2v5.3c0,0.7,0.6,1.2,1.2,1.2h5.6c0.7,0,1.2-0.6,1.2-1.2v-5.3
				C24.5,28.8,23.9,28.2,23.3,28.2z M21.2,35h-1.4v-2.5l-1.9-3.2h1.5l1.8,3.2V35z M21.4,32.1l-1.6-2.8H23L21.4,32.1z"/>
		</g>
		<path class="st2" d="M23.8,11C23.8,11,23.8,11,23.8,11c-0.3,0-0.6,0-1,0V7.4h-1.4V11c-0.5,0-1.1,0-1.6,0V7.4h-1.4V11
			c-0.6,0-0.9,0-0.9,0c0,0-0.1,0-0.1,0c-0.5,0-0.6,0.4-0.6,0.8c0,0.2,0,0.4,0.1,0.6l1.3,5.3c0.1,0.5,0.6,0.9,1.2,0.9h0.2h2.2h0.2
			c0.6,0,1.1-0.4,1.2-0.9l1.3-5.3c0.1-0.2,0.1-0.4,0.1-0.6C24.4,11.5,24.3,11,23.8,11z M20.2,14.3c-0.4,0.7-0.7,0.9-1.1,1.3
			c-0.4,0.4-0.4,1.1-0.4,1.1s-1.1-2.1-0.7-3.4c0.4-1.4,1.6-0.9,1.6-0.9S20.9,12.8,20.2,14.3z M22.4,16.8c0,0,0-0.7-0.4-1.1
			c-0.4-0.5-0.7-0.6-1.1-1.3c-0.7-1.5,0.5-1.9,0.5-1.9s1.2-0.5,1.6,0.9C23.5,14.7,22.4,16.8,22.4,16.8z"/>
		<g>
			<circle class="st2" cx="19.2" cy="13.6" r="0.5"/>
			<circle class="st2" cx="21.9" cy="13.6" r="0.5"/>
		</g>
		<path class="st2" d="M11.4,17.3c-0.2,0-1.5,0-2.4-0.9c-0.9-0.8-1.8-2.1-2.1-3c-0.4,0.1-1.1,0.1-1.5,0.2C5.9,14.5,8,18,11.1,18
			c0,0,0.1,0,0.1,0l6.1,0l-0.1-0.6H11.4z"/>
		<path class="st2" d="M9.5,15.9c0.8,0.7,1.9,0.7,1.9,0.7h5.5l-0.8-3.5h-7c0,0-0.6,0.2-1.4,0.3C8,14.1,8.7,15.1,9.5,15.9z M14.6,16
			h-3.8c-0.6,0-1.1-0.5-1.2-1c1.3,0.5,3.7,1,6.1,0C15.7,15.5,15.2,16,14.6,16z M12.2,14.7c0-0.3,0.2-0.6,0.6-0.6
			c0.3,0,0.6,0.2,0.6,0.6s-0.2,0.6-0.6,0.6C12.5,15.3,12.2,15,12.2,14.7z M10.9,13.4h3.8c0.6,0,1.1,0.5,1.2,1c-1.4-0.5-3.7-1-6.1,0
			C9.8,13.9,10.3,13.4,10.9,13.4z"/>
		<path class="st2" d="M30,17.9C30.1,17.9,30.1,17.9,30,17.9c3.2,0,5.3-3.5,5.8-4.3c-0.4,0-1.1-0.1-1.5-0.2c-0.3,0.9-1.1,2.1-2.1,3
			c-0.9,0.9-2.2,0.9-2.4,0.9c0,0,0,0,0,0h-5.6L24,17.9L30,17.9z"/>
		<path class="st2" d="M29.8,16.5c0,0,1.2,0,1.9-0.7c0.8-0.7,1.6-1.8,1.8-2.5c-0.8-0.1-1.4-0.3-1.4-0.3l-7,0l-0.8,3.5H29.8z
			 M26.6,13.4h3.8c0.6,0,1.1,0.5,1.2,1c-2.4-1-4.8-0.5-6.1,0C25.5,13.8,26,13.4,26.6,13.4z M29.1,14.6c0,0.3-0.2,0.6-0.6,0.6
			s-0.6-0.2-0.6-0.6c0-0.3,0.2-0.6,0.6-0.6S29.1,14.3,29.1,14.6z M31.5,14.9c-0.1,0.6-0.6,1-1.2,1h-3.8c-0.6,0-1.1-0.5-1.2-1
			C27.9,15.9,30.2,15.4,31.5,14.9z"/>
	</g>
</g>
</svg>
