<?xml version="1.0" encoding="UTF-8"?><svg id="Layer_2" xmlns="http://www.w3.org/2000/svg" xmlns:xlink="http://www.w3.org/1999/xlink" viewBox="0 0 54 54"><defs><style>.cls-1,.cls-2{fill:none;}.cls-3{clip-path:url(#clippath);}.cls-4{fill:#002d62;}.cls-5{fill:#fff;}.cls-2{stroke:#fff;stroke-width:1.187px;}</style><clipPath id="clippath"><rect class="cls-1" x="7.66737" y="6.8811" width="39.33297" height="32.80299"/></clipPath></defs><g id="Icons"><circle class="cls-4" cx="27" cy="27" r="27"/><path class="cls-5" d="m10.10185,36.46907v-12.46632l.32065-.25565,16.39788-13.21595.53875-.43475.5373.43475,16.35022,13.21595.3192.2571v13.32283H10.10185v-.85795ZM26.82183,8.41949l-17.97947,14.53465-.31776.2571v15.61648h37.61995v-15.61504l-.31776-.2571-17.92602-14.53465-.54019-.4362-.53875.43475Z"/><g class="cls-3"><path class="cls-2" d="m43.70834,37.32703H10.10228v-13.32283l.3192-.25854,16.39933-13.21595.53875-.43331.5373.43475,16.35022,13.21595.31776.2571v13.32283h-.85651Zm2.4352.64274v-14.75708l-.31776-.2571-17.92458-14.53465-.54019-.43764-.53875.4362-17.97947,14.53465-.31776.2571v15.61504h37.61851v-.85651Z"/></g><path class="cls-5" d="m17.84939,35.02601h-2.38898v-6.99795h2.38898v6.99795Zm.8334-8.165h-4.05434v9.33205h4.05434v-9.33205Z"/><path class="cls-5" d="m22.15938,35.02601h-2.38898v-6.99795h2.38898v6.99795Zm.8334-8.165h-4.05434v9.33205h4.05434v-9.33205Z"/><rect class="cls-5" x="18.42497" y="16.70725" width=".77129" height="9.62905"/><rect class="cls-5" x="35.46803" y="16.70725" width=".77129" height="20.61978"/><rect class="cls-5" x="26.94578" y="10.19881" width=".77274" height="27.21618"/><rect class="cls-5" x="10.1589" y="23.64296" width="34.21558" height=".77129"/></g></svg>