<?xml version="1.0" encoding="UTF-8"?><svg id="Layer_2" xmlns="http://www.w3.org/2000/svg" viewBox="0 0 54 54"><defs><style>.cls-1{fill:#002d62;}.cls-2,.cls-3{fill:#fff;}.cls-3{stroke:#fff;stroke-width:1.187px;}</style></defs><g id="Icons"><circle class="cls-1" cx="27" cy="27" r="27"/><path class="cls-3" d="m10.01415,35.03273v-7.95285l.32083-.25986,16.48312-13.28348.5415-.43553.54005.43698,16.01342,12.94371.42034.33976.31939.25841v7.95285H10.01415Zm36.22542-8.74841l-2.3265-1.88594-16.00905-12.98139-.54295-.43988-.5415.43843-18.39072,14.86733v10.25677h37.81067l.00006-10.25532Z"/><rect class="cls-2" x="21.80534" y="17.57625" width=".77523" height="17.45648"/><polygon class="cls-2" points="10.07106 36.33384 14.32368 36.33384 14.32368 35.08301 14.32368 25.65306 14.32368 24.11371 10.07106 24.11371 10.07106 36.33384"/><polygon class="cls-2" points="40.34955 35.59572 44.46147 35.59572 44.46147 34.42043 44.46147 25.56008 44.46147 24.11371 40.34955 24.11371 40.34955 35.59572"/><rect class="cls-2" x="26.94371" y="13.20395" width=".77668" height="23.1299"/><rect class="cls-2" x="32.05309" y="17.34753" width=".77668" height="18.24818"/><rect class="cls-2" x="10.07106" y="26.7168" width="34.39041" height=".77523"/></g></svg>