<?xml version="1.0" encoding="utf-8"?>
<!-- Generator: Adobe Illustrator 19.2.0, SVG Export Plug-In . SVG Version: 6.00 Build 0)  -->
<svg version="1.1" id="Layer_1" xmlns="http://www.w3.org/2000/svg" xmlns:xlink="http://www.w3.org/1999/xlink" x="0px" y="0px"
	 viewBox="0 0 41 41" enable-background="new 0 0 41 41" xml:space="preserve">
<circle fill="#C41230" cx="20.5" cy="21.3" r="20.3"/>
<g>
	<circle fill="#FFFFFF" cx="11" cy="18.7" r="2.8"/>
	<g>
		<path fill="#FFFFFF" d="M20.1,14.6v1.9l0.1-0.1c0.1-0.1,0.1-0.2,0.2-0.2c0.2-0.2,0.6-0.4,1.1-0.4h0c0,0,0.1,0,0.1,0v-0.9
			c0.3-0.2,0.5-0.6,0.7-1.1l10.9,2.2l0.3-1.4l-11.1-2.2c-0.2-1-0.7-1.7-1.4-1.7c-0.5,0-1,0.5-1.2,1.1L8.5,9.5l-0.3,1.4l11.3,2.3
			C19.6,13.8,19.8,14.3,20.1,14.6z"/>
		<g>
			<path fill="#FFFFFF" d="M19,22C18.9,22,18.9,22,19,22C18.9,22,18.9,22,19,22z"/>
			<path fill="#FFFFFF" d="M20.1,21L20.1,21C20.1,21,20.1,21,20.1,21l1.4-2.1l0,0L20.1,21C20.1,21,20.1,21,20.1,21z"/>
			<path fill="#FFFFFF" d="M19.3,21.8c0.2-0.2,0.4-0.3,0.5-0.4v0l0,0C19.7,21.5,19.5,21.6,19.3,21.8z"/>
			<path fill="#FFFFFF" d="M19.3,21.8C19.3,21.8,19.3,21.8,19.3,21.8C19.3,21.8,19.3,21.8,19.3,21.8z"/>
			<path fill="#FFFFFF" d="M22.4,16.8c0.1,0.1,0.1,0.3,0.1,0.4C22.5,17.1,22.4,17,22.4,16.8z"/>
			<path fill="#FFFFFF" d="M22.5,17.2c0,0.1,0,0.2,0,0.3C22.5,17.4,22.5,17.3,22.5,17.2z"/>
			<path fill="#FFFFFF" d="M22.3,17.9C22.3,17.8,22.3,17.8,22.3,17.9c0.1-0.2,0.1-0.3,0.2-0.4C22.4,17.6,22.4,17.7,22.3,17.9
				C22.3,17.8,22.3,17.8,22.3,17.9z"/>
			<path fill="#FFFFFF" d="M20.6,16.6C20.6,16.6,20.6,16.6,20.6,16.6l-0.5,0.7v0L20.6,16.6C20.6,16.6,20.6,16.6,20.6,16.6z"/>
			<path fill="#FFFFFF" d="M32.5,26.5c0,0-4-2.4-4.9-3c-0.8-0.6-1.9-0.1-1.9-0.1l-4.2,2.1v-5.8l-1,1.5c0,0,0,0,0,0
				c-0.1,0.1-0.2,0.3-0.4,0.5v3.3l-2.9-2.4l1.6-0.6c0,0,0,0,0.1,0c-0.6,0.2-1.3-0.4-1-1.1l0.4-1.1c0-0.1,0.1-0.1,0.1-0.2l-0.1,0.1
				c0,0-1.8,0.9-3.6,1.2c-1.8,0.3-2.2,1.7-2.2,1.7c-0.7,1.8,1.1,3.4,1.1,3.4s2.5,2.3,4,3.5c1.6,1.2,2.8,1.1,2.8,1.1l5.2,0l3.9,3.3
				c0,0,1,1.1,1.9,0c0.9-1.1-0.1-2-0.1-2s-3.4-2.8-4-3.4c-0.6-0.6-1.9-0.6-1.9-0.6h-0.8l2.2-1.7l4.4,2.8c0,0,1.2,0.6,1.9-0.4
				C33.7,27.4,32.5,26.5,32.5,26.5z"/>
			<path fill="#FFFFFF" d="M20.7,16.5C20.7,16.5,20.7,16.5,20.7,16.5C20.7,16.5,20.7,16.5,20.7,16.5C20.7,16.5,20.7,16.5,20.7,16.5
				C20.7,16.5,20.7,16.5,20.7,16.5z"/>
			<path fill="#FFFFFF" d="M21.4,16.2C21.4,16.2,21.4,16.2,21.4,16.2C21.4,16.2,21.4,16.2,21.4,16.2C21.4,16.2,21.4,16.2,21.4,16.2z
				"/>
			<path fill="#FFFFFF" d="M21.2,16.2C21.2,16.2,21.2,16.2,21.2,16.2C21.2,16.2,21.2,16.2,21.2,16.2z"/>
			<path fill="#FFFFFF" d="M21.1,16.2C21.1,16.2,21.1,16.2,21.1,16.2C21.1,16.2,21.1,16.2,21.1,16.2z"/>
			<path fill="#FFFFFF" d="M21,16.3C21,16.3,21,16.3,21,16.3C21,16.3,21,16.3,21,16.3z"/>
			<path fill="#FFFFFF" d="M20.8,16.4C20.8,16.4,20.8,16.4,20.8,16.4C20.8,16.4,20.8,16.4,20.8,16.4z"/>
			<path fill="#FFFFFF" d="M20.9,16.3C20.9,16.3,20.9,16.3,20.9,16.3C20.9,16.3,20.9,16.3,20.9,16.3z"/>
			<path fill="#FFFFFF" d="M22,16.4C22,16.4,22.1,16.4,22,16.4C22.1,16.4,22,16.4,22,16.4z"/>
			<path fill="#FFFFFF" d="M20.7,16.4C20.7,16.4,20.8,16.4,20.7,16.4C20.8,16.4,20.7,16.4,20.7,16.4z"/>
			<path fill="#FFFFFF" d="M21.3,16.2C21.3,16.2,21.3,16.2,21.3,16.2C21.3,16.2,21.3,16.2,21.3,16.2z"/>
			<path fill="#FFFFFF" d="M21.5,16.2C21.5,16.2,21.5,16.2,21.5,16.2C21.5,16.2,21.5,16.2,21.5,16.2L21.5,16.2z"/>
			<path fill="#FFFFFF" d="M17.8,21c-0.2,0.6,0.4,1.3,1,1.1c0,0,0,0,0,0c0,0,0,0,0,0c0,0,0.1,0,0.1,0c0,0,0,0,0,0
				c0.1,0,0.2-0.1,0.3-0.2c0,0,0.1,0,0.1-0.1c0,0,0,0,0,0c0.2-0.1,0.4-0.3,0.5-0.5c0.1-0.2,0.2-0.3,0.2-0.3c0,0,0,0,0,0c0,0,0,0,0,0
				l1.4-2l0.7-1c0,0,0,0,0,0c0,0,0-0.1,0.1-0.1c0-0.1,0.1-0.2,0.1-0.3c0-0.1,0-0.2,0-0.3c0-0.1,0-0.3-0.1-0.4
				c-0.1-0.1-0.1-0.3-0.3-0.4c0,0-0.1,0-0.1-0.1c-0.2-0.1-0.3-0.2-0.5-0.2c0,0,0,0,0,0c0,0,0,0-0.1,0c0,0,0,0,0,0c0,0-0.1,0-0.1,0
				c0,0,0,0,0,0c0,0,0,0-0.1,0c0,0,0,0,0,0c0,0,0,0-0.1,0c0,0,0,0,0,0c0,0-0.1,0-0.1,0c0,0,0,0,0,0c0,0-0.1,0-0.1,0c0,0,0,0,0,0
				c0,0,0,0-0.1,0c0,0,0,0,0,0c0,0,0,0,0,0c0,0,0,0,0,0c0,0,0,0-0.1,0c0,0,0,0,0,0c0,0,0,0,0,0c0,0,0,0-0.1,0.1c0,0,0,0,0,0
				l-0.5,0.7l-1.8,2.5c0,0,0,0,0,0c0,0.1-0.1,0.1-0.1,0.2L17.8,21z"/>
		</g>
	</g>
</g>
</svg>
