<svg viewBox="0 0 277 80" xmlns="http://www.w3.org/2000/svg"><circle cx="40" cy="40" fill="#c41230" r="40"/><path d="m-1.659-24.035v-1.835a3.671 3.671 0 0 1 3.676-3.665h1.812a3.671 3.671 0 0 1 2.6 1.069 3.671 3.671 0 0 1 1.081 2.6v1.835h3.671a1.829 1.829 0 0 1 1.3.538 1.829 1.829 0 0 1 .534 1.3v1.835a1.824 1.824 0 0 1 -.534 1.3 1.824 1.824 0 0 1 -1.3.534h-16.522a1.824 1.824 0 0 1 -1.292-.536 1.824 1.824 0 0 1 -.532-1.293v-1.847a1.824 1.824 0 0 1 .53-1.3 1.824 1.824 0 0 1 1.294-.538zm-1.835-1.835h-1.83a3.676 3.676 0 0 0 -3.659 3.67h-1.853a3.659 3.659 0 0 0 -2.6 1.076 3.659 3.659 0 0 0 -1.068 2.6v38.477a3.665 3.665 0 0 0 1.069 2.6 3.665 3.665 0 0 0 2.6 1.077h27.517a3.659 3.659 0 0 0 3.665-3.676v-38.477a3.665 3.665 0 0 0 -1.069-2.6 3.665 3.665 0 0 0 -2.6-1.077h-1.849a3.676 3.676 0 0 0 -3.659-3.67h-1.829a5.512 5.512 0 0 0 -5.517-5.5h-1.772a5.512 5.512 0 0 0 -3.919 1.6 5.512 5.512 0 0 0 -1.633 3.9zm18.324 5.506h1.835a1.835 1.835 0 0 1 1.829 1.835v38.482a1.824 1.824 0 0 1 -1.829 1.841h-27.495a1.847 1.847 0 0 1 -1.835-1.841v-38.482a1.818 1.818 0 0 1 .532-1.3 1.818 1.818 0 0 1 1.3-.532h1.847a3.671 3.671 0 0 0 3.662 3.661h16.494a3.671 3.671 0 0 0 3.659-3.665zm-11.907-3.671a.918.918 0 0 0 .918-.918.918.918 0 0 0 -.918-.918.918.918 0 0 0 -.918.918.918.918 0 0 0 .918.918zm-2.753 16.506v1.835h14.659v-1.835zm-9.153-1.835h5.488v5.506h-5.488zm1.835 1.835v1.835h1.818v-1.835zm-1.835 7.341h5.488v5.5h-5.488zm1.835 1.829v1.836h1.818v-1.836zm7.335 0v1.836h14.642v-1.836zm-9.17 7.341h5.488v5.5h-5.488zm1.835 1.829v1.835h1.818v-1.834zm7.335 0v1.835h14.642v-1.834z" fill="#fff" transform="translate(37.5 41.37)"/><circle cx="135" cy="40" fill="#c41230" r="40"/><circle cx="135" cy="40" fill="none" r="25" stroke="#fff" stroke-miterlimit="10" stroke-width="3"/><path d="m142.583 129.148-2.083-2.5c1.117-1.033 3.042-2.358 7.083-2.358 4.4 0 7.242 2.2 7.242 6.283 0 3.717-1.842 5.717-4.242 7.958l-4.725 4.325a1.942 1.942 0 0 1 -1.433-1.842c0-3 7.158-5.2 7.158-10 0-2.442-1.525-3.883-4.167-3.883a6.25 6.25 0 0 0 -4.833 2.017zm4.917 19.067a2.392 2.392 0 0 1 2.442 2.5 2.417 2.417 0 1 1 -2.442-2.5z" fill="#fff" transform="translate(-12.342 -97.232)"/><circle cx="237" cy="40" fill="#c41230" r="40"/><path d="m25.654 3.127-4.332-4.31-18.815 18.8 4.34 4.34zm1.177-1.177 2.884-2.891a1.66 1.66 0 0 0 .49-1.177 1.66 1.66 0 0 0 -.49-1.177l-1.963-1.963a1.66 1.66 0 0 0 -1.181-.493 1.66 1.66 0 0 0 -1.181.493l-2.89 2.875zm-25.403 16.943-1.072 5.185 5.23-1.026zm16.822-6.038v16.679a3.321 3.321 0 0 1 -3.328 3.336h-25a3.328 3.328 0 0 1 -2.356-.978 3.328 3.328 0 0 1 -.972-2.358v-34.989a3.321 3.321 0 0 1 .97-2.361 3.321 3.321 0 0 1 2.358-.975h1.668a3.336 3.336 0 0 1 3.336-3.336h1.664a5 5 0 0 1 1.468-3.541 5 5 0 0 1 3.542-1.462h1.639a5.011 5.011 0 0 1 5.011 5h1.668a3.343 3.343 0 0 1 3.336 3.34h1.668a3.328 3.328 0 0 1 2.356.978 3.328 3.328 0 0 1 .972 2.358v5.026l5.97-5.972a3.321 3.321 0 0 1 2.344-1.017 3.321 3.321 0 0 1 2.373.949l1.963 1.968a3.328 3.328 0 0 1 .98 2.358 3.328 3.328 0 0 1 -.98 2.355l-12.65 12.657zm-1.668-11.645v-6.665a1.675 1.675 0 0 0 -1.668-1.668h-1.66a3.336 3.336 0 0 1 -3.343 3.329h-14.989a3.336 3.336 0 0 1 -3.336-3.328h-1.668a1.66 1.66 0 0 0 -1.182.486 1.66 1.66 0 0 0 -.486 1.182v34.988a1.683 1.683 0 0 0 1.668 1.675h25a1.66 1.66 0 0 0 1.668-1.675v-15l-10 10-8.366 1.672 1.668-8.3zm-18.362-11.668h-3.305a1.66 1.66 0 0 0 -1.177.489 1.66 1.66 0 0 0 -.484 1.179v1.668a1.653 1.653 0 0 0 .484 1.176 1.653 1.653 0 0 0 1.176.484h15.012a1.653 1.653 0 0 0 1.174-.484 1.653 1.653 0 0 0 .484-1.176v-1.668a1.66 1.66 0 0 0 -.484-1.179 1.66 1.66 0 0 0 -1.177-.489h-3.333v-1.668a3.336 3.336 0 0 0 -.98-2.361 3.336 3.336 0 0 0 -2.364-.974h-1.652a3.351 3.351 0 0 0 -2.379.968 3.351 3.351 0 0 0 -.995 2.368zm4.166 0a.838.838 0 0 0 .838-.83.838.838 0 0 0 -.808-.838.838.838 0 0 0 -.83.838.83.83 0 0 0 .83.83z" fill="#fff" transform="translate(233.41 32.13)"/></svg>