<svg id="Layer_1" data-name="Layer 1" xmlns="http://www.w3.org/2000/svg" viewBox="0 0 80 80"><title>faq-icon</title><circle cx="40" cy="40" r="40" style="fill:#c41230"/><circle cx="40" cy="40" r="25" style="fill:none;stroke:#fff;stroke-miterlimit:10;stroke-width:3px"/><path d="M35.24,31.92l-2.08-2.5c1.12-1,3-2.36,7.08-2.36,4.4,0,7.24,2.2,7.24,6.28,0,3.72-1.84,5.72-4.24,8l-4.72,4.32a1.94,1.94,0,0,1-1.44-1.84c0-3,7.16-5.2,7.16-10,0-2.44-1.52-3.88-4.17-3.88a6.24,6.24,0,0,0-4.83,2ZM40.16,51a2.39,2.39,0,0,1,2.44,2.34v.16A2.42,2.42,0,1,1,40.16,51Z" style="fill:#fff"/></svg>