<?xml version="1.0" encoding="utf-8"?>
<!-- Generated by IcoMoon.io -->
<svg version="1.1" xmlns="http://www.w3.org/2000/svg" xmlns:xlink="http://www.w3.org/1999/xlink" width="518" height="14" viewBox="0 0 518 14">
<svg id="icon-plus" width="11" height="14" viewBox="0 0 11 14" x="0" y="0">
<path fill="#fff" d="M11 5.75v1.5c0 0.414-0.336 0.75-0.75 0.75h-3.25v3.25c0 0.414-0.336 0.75-0.75 0.75h-1.5c-0.414 0-0.75-0.336-0.75-0.75v-3.25h-3.25c-0.414 0-0.75-0.336-0.75-0.75v-1.5c0-0.414 0.336-0.75 0.75-0.75h3.25v-3.25c0-0.414 0.336-0.75 0.75-0.75h1.5c0.414 0 0.75 0.336 0.75 0.75v3.25h3.25c0.414 0 0.75 0.336 0.75 0.75z"></path>
</svg>
<svg id="icon-minus" width="11" height="14" viewBox="0 0 11 14" x="24" y="0">
<path fill="#fff" d="M11 5.75v1.5c0 0.414-0.336 0.75-0.75 0.75h-9.5c-0.414 0-0.75-0.336-0.75-0.75v-1.5c0-0.414 0.336-0.75 0.75-0.75h9.5c0.414 0 0.75 0.336 0.75 0.75z"></path>
</svg>
</svg>
