<svg id="Layer_1" data-name="Layer 1" xmlns="http://www.w3.org/2000/svg" viewBox="0 0 80 80"><title>registration-icon</title><circle cx="40" cy="40" r="40" style="fill:#c41230"/><path d="M35.84,17.33V15.5a3.67,3.67,0,0,1,3.68-3.67h1.81A3.67,3.67,0,0,1,45,15.5v1.84h3.67a1.84,1.84,0,0,1,1.84,1.84V21a1.84,1.84,0,0,1-1.84,1.84H32.16a1.82,1.82,0,0,1-1.29-.54A1.75,1.75,0,0,1,30.34,21V19.17a1.77,1.77,0,0,1,.53-1.3,1.82,1.82,0,0,1,1.29-.54ZM34,15.5H32.18a3.67,3.67,0,0,0-3.66,3.67H26.66A3.65,3.65,0,0,0,23,22.85V61.32A3.67,3.67,0,0,0,26.67,65H54.18a3.67,3.67,0,0,0,3.67-3.65V22.85a3.67,3.67,0,0,0-3.67-3.68H52.33a3.68,3.68,0,0,0-3.66-3.67H46.84A5.51,5.51,0,0,0,41.32,10H39.55A5.51,5.51,0,0,0,34,15.5ZM52.33,21h1.84A1.82,1.82,0,0,1,56,22.84V61.32a1.82,1.82,0,0,1-1.8,1.84H26.67a1.83,1.83,0,0,1-1.83-1.84V22.84a1.77,1.77,0,0,1,.53-1.3,1.84,1.84,0,0,1,1.3-.53h1.84a3.68,3.68,0,0,0,3.67,3.66H48.67A3.67,3.67,0,0,0,52.33,21ZM40.42,17.34a.92.92,0,1,0-.91-.92A.92.92,0,0,0,40.42,17.34Zm-2.75,16.5v1.84H52.33V33.84ZM28.52,32H34v5.5H28.52Zm1.83,1.83v1.84h1.82V33.84Zm-1.83,7.34H34v5.5H28.52ZM30.35,43v1.84h1.82V43Zm7.34,0v1.84H52.33V43Zm-9.17,7.34H34v5.5H28.52Zm1.83,1.83V54h1.82V52.18Zm7.34,0V54H52.33V52.18Z" style="fill:#fff"/></svg>