<?xml version="1.0" encoding="utf-8"?>
<!-- Generated by IcoMoon.io -->
<svg version="1.1" xmlns="http://www.w3.org/2000/svg" xmlns:xlink="http://www.w3.org/1999/xlink" width="650" height="20" viewBox="0 0 650 20">
<svg id="icon-print" width="19" height="20" viewBox="0 0 19 20" x="0" y="0">
<path fill="#C41230" d="M4.286 17.143h10v-2.857h-10v2.857zM4.286 10h10v-4.286h-1.786c-0.592 0-1.071-0.48-1.071-1.071v-1.786h-7.143v7.143zM17.143 10.714c0-0.391-0.324-0.714-0.714-0.714s-0.714 0.324-0.714 0.714 0.324 0.714 0.714 0.714 0.714-0.324 0.714-0.714zM18.571 10.714v4.643c0 0.19-0.167 0.357-0.357 0.357h-2.5v1.786c0 0.592-0.48 1.071-1.071 1.071h-10.714c-0.592 0-1.071-0.48-1.071-1.071v-1.786h-2.5c-0.19 0-0.357-0.167-0.357-0.357v-4.643c0-1.172 0.971-2.143 2.143-2.143h0.714v-6.071c0-0.592 0.48-1.071 1.071-1.071h7.5c0.592 0 1.406 0.335 1.83 0.759l1.696 1.696c0.424 0.424 0.759 1.239 0.759 1.83v2.857h0.714c1.172 0 2.143 0.971 2.143 2.143z"></path>
</svg>
<svg id="icon-map-marker" width="11" height="20" viewBox="0 0 11 20" x="30" y="0">
<path fill="#C41230" d="M8.571 7.143c0-1.574-1.283-2.857-2.857-2.857s-2.857 1.283-2.857 2.857 1.283 2.857 2.857 2.857 2.857-1.283 2.857-2.857zM11.429 7.143c0 0.681-0.078 1.384-0.368 1.998l-4.063 8.638c-0.234 0.491-0.748 0.792-1.283 0.792s-1.049-0.301-1.272-0.792l-4.074-8.638c-0.29-0.614-0.368-1.317-0.368-1.998 0-3.158 2.556-5.714 5.714-5.714s5.714 2.556 5.714 5.714z"></path>
</svg>
<svg id="icon-phone" width="16" height="20" viewBox="0 0 16 20" x="60" y="0">
<path fill="#C41230" d="M15.714 13.839c0 0.402-0.179 1.183-0.346 1.551-0.234 0.547-0.859 0.904-1.362 1.183-0.658 0.357-1.328 0.569-2.076 0.569-1.038 0-1.975-0.424-2.924-0.77-0.681-0.246-1.339-0.547-1.953-0.926-1.897-1.172-4.185-3.46-5.357-5.357-0.379-0.614-0.681-1.272-0.926-1.953-0.346-0.949-0.77-1.886-0.77-2.924 0-0.748 0.212-1.417 0.569-2.076 0.279-0.502 0.636-1.127 1.183-1.362 0.368-0.167 1.15-0.346 1.551-0.346 0.078 0 0.156 0 0.234 0.033 0.234 0.078 0.48 0.625 0.592 0.848 0.357 0.636 0.703 1.283 1.071 1.908 0.179 0.29 0.513 0.647 0.513 0.993 0 0.681-2.020 1.674-2.020 2.277 0 0.301 0.279 0.692 0.435 0.96 1.127 2.031 2.533 3.438 4.565 4.565 0.268 0.156 0.658 0.435 0.96 0.435 0.603 0 1.596-2.020 2.277-2.020 0.346 0 0.703 0.335 0.993 0.513 0.625 0.368 1.272 0.714 1.908 1.071 0.223 0.112 0.77 0.357 0.848 0.592 0.033 0.078 0.033 0.156 0.033 0.234z"></path>
</svg>
<svg id="icon-envelope" width="20" height="20" viewBox="0 0 20 20" x="90" y="0">
<path fill="#C41230" d="M20 7.924v8.862c0 0.982-0.804 1.786-1.786 1.786h-16.429c-0.982 0-1.786-0.804-1.786-1.786v-8.862c0.335 0.368 0.714 0.692 1.127 0.971 1.853 1.261 3.728 2.522 5.547 3.85 0.938 0.692 2.098 1.54 3.315 1.54h0.022c1.217 0 2.377-0.848 3.315-1.54 1.819-1.317 3.694-2.589 5.558-3.85 0.402-0.279 0.781-0.603 1.116-0.971zM20 4.643c0 1.25-0.926 2.377-1.908 3.058-1.741 1.205-3.493 2.411-5.223 3.627-0.725 0.502-1.953 1.529-2.857 1.529h-0.022c-0.904 0-2.132-1.027-2.857-1.529-1.73-1.217-3.482-2.422-5.212-3.627-0.792-0.536-1.92-1.797-1.92-2.813 0-1.094 0.592-2.031 1.786-2.031h16.429c0.971 0 1.786 0.804 1.786 1.786z"></path>
</svg>
</svg>
