<svg id="Layer_1" data-name="Layer 1" xmlns="http://www.w3.org/2000/svg" viewBox="0 0 80 80"><title>waitlist-faq</title><circle cx="40" cy="40" r="40" style="fill:#c41230"/><path d="M62.06,35.26,57.73,31,38.92,49.75l4.34,4.34Zm1.18-1.18,2.89-2.89A1.73,1.73,0,0,0,66.62,30a1.7,1.7,0,0,0-.49-1.17l-2-2a1.67,1.67,0,0,0-2.36,0l-2.89,2.88ZM37.84,51l-1.07,5.19,5.23-1Zm16.82-6V61.66A3.32,3.32,0,0,1,51.35,65h-25A3.35,3.35,0,0,1,23,61.66v-35a3.31,3.31,0,0,1,3.33-3.34H28A3.34,3.34,0,0,1,31.34,20H33a5,5,0,0,1,5-5h1.64a5,5,0,0,1,5,5h1.67a3.34,3.34,0,0,1,3.33,3.34h1.67a3.33,3.33,0,0,1,3.33,3.34v5l6-6a3.32,3.32,0,0,1,4.72-.07l2,2a3.32,3.32,0,0,1,0,4.71L54.66,45ZM53,33.34V26.68A1.67,1.67,0,0,0,51.32,25H49.66a3.34,3.34,0,0,1-3.34,3.33h-15A3.33,3.33,0,0,1,28,25H26.33a1.66,1.66,0,0,0-1.67,1.67v35a1.69,1.69,0,0,0,1.67,1.68h25A1.68,1.68,0,0,0,53,61.69v-15l-10,10-8.37,1.68L36.3,50ZM34.63,21.67h-3.3a1.66,1.66,0,0,0-1.18.49,1.68,1.68,0,0,0-.49,1.18V25a1.66,1.66,0,0,0,.49,1.17,1.62,1.62,0,0,0,1.17.49h15A1.66,1.66,0,0,0,48,25V23.34a1.63,1.63,0,0,0-.48-1.18,1.68,1.68,0,0,0-1.18-.49H43V20a3.33,3.33,0,0,0-3.34-3.33H38A3.36,3.36,0,0,0,34.63,20Zm4.17,0a.83.83,0,0,0,.83-.83.82.82,0,1,0-1.63,0,.83.83,0,0,0,.83.83Z" style="fill:#fff"/></svg>